<svg width="35" height="35" viewBox="0 0 35 35" fill="none" xmlns="http://www.w3.org/2000/svg">
<path d="M25.3998 34.174C26.907 33.4807 27.5551 31.7022 26.8618 30.1951L13.7042 1.73967C13.0109 0.2325 11.2324 -0.415584 9.72524 0.277715C8.21806 0.971014 7.56998 2.74948 8.26328 4.25665L21.4209 32.712C22.1142 34.2192 23.8926 34.8673 25.3998 34.174Z" fill="#FFA2A4"/>
<path d="M4.60086 26.5176L33.0563 13.36C34.5634 12.6667 35.2115 10.8882 34.5182 9.38103C33.8249 7.87386 32.0464 7.22577 30.5393 7.91907L2.08388 21.0767C0.576708 21.77 -0.0713759 23.5484 0.621923 25.0556C1.31522 26.5628 3.09368 27.2109 4.60086 26.5176Z" fill="#FFA2A4"/>
</svg>
