<svg width="90" height="94" viewBox="0 0 90 94" fill="none" xmlns="http://www.w3.org/2000/svg">
<path d="M44.9997 89.5639C69.8524 89.5639 89.9994 69.5475 89.9994 44.8561C89.9994 20.1647 69.8524 0.148315 44.9997 0.148315C20.1471 0.148315 0 20.1647 0 44.8561C0 69.5475 20.1471 89.5639 44.9997 89.5639Z" fill="#F9E5FF"/>
<path d="M69.1155 42.4534C69.1155 42.4534 71.5549 51.8253 65.0584 61.6064L63.9165 56.7702C63.9165 56.7702 68.2627 51.4675 69.1155 42.4534Z" fill="#6747C2"/>
<g opacity="0.3">
<path opacity="0.3" d="M69.1155 42.4534C69.1155 42.4534 71.5549 51.8253 65.0584 61.6064L63.9165 56.7702C63.9165 56.7702 68.2627 51.4675 69.1155 42.4534Z" fill="#390075"/>
</g>
<path d="M65.0584 62.1596C65.0261 62.1596 64.9931 62.1567 64.9605 62.1511C64.7417 62.1125 64.5669 61.9479 64.5161 61.7329L63.3745 56.8965C63.3353 56.7295 63.376 56.5541 63.4849 56.4211C63.5271 56.3695 67.7358 51.1257 68.5613 42.4018C68.5865 42.1343 68.8017 41.9238 69.071 41.9022C69.3399 41.8807 69.5866 42.0547 69.6542 42.3151C69.6801 42.4142 70.2835 44.7829 70.0787 48.3931C69.8902 51.7144 68.9469 56.7555 65.5226 61.911C65.4188 62.0679 65.243 62.1596 65.0584 62.1596ZM64.5191 56.9003L65.2953 60.1888C68.3799 55.022 69.0181 50.0414 68.9941 46.706C67.6827 52.4242 65.2003 55.9976 64.5191 56.9003Z" fill="#390075"/>
<path d="M17.5255 41.4083C17.5255 41.4083 15.0862 50.7802 21.5826 60.5613L22.7243 55.7251C22.7243 55.7248 18.378 50.4224 17.5255 41.4083Z" fill="#6747C2"/>
<g opacity="0.3">
<path opacity="0.3" d="M17.5255 41.4083C17.5255 41.4083 15.0862 50.7802 21.5826 60.5613L22.7243 55.7251C22.7243 55.7248 18.378 50.4224 17.5255 41.4083Z" fill="#390075"/>
</g>
<path d="M21.5826 61.1142C21.3977 61.1142 21.2223 61.0225 21.1184 60.8656C17.6939 55.7101 16.7508 50.6689 16.5623 47.3477C16.3578 43.7375 16.961 41.3688 16.9868 41.2697C17.0545 41.0096 17.2991 40.8362 17.5701 40.8568C17.8396 40.8784 18.0545 41.0889 18.0797 41.3564C18.907 50.1021 23.1137 55.324 23.1562 55.3756C23.2651 55.5086 23.3058 55.6841 23.2666 55.851L22.125 60.6875C22.0742 60.9025 21.8997 61.0667 21.6806 61.1057C21.6479 61.1113 21.615 61.1142 21.5826 61.1142ZM17.647 45.6606C17.6229 48.9959 18.2611 53.9769 21.3458 59.1437L22.122 55.8552C21.4408 54.9525 18.9584 51.3785 17.647 45.6606Z" fill="#390075"/>
<path d="M26.5439 73.5549C26.5439 73.5549 24.0662 77.6871 20.2573 77.391C18.3789 77.2439 16.9013 75.575 16.0684 73.155C15.2111 70.6675 15.0369 67.3834 15.814 64.148C15.814 64.148 17.7499 63.3603 25.6273 63.5039C25.676 63.5057 25.7249 63.5057 25.7736 63.5074C25.7736 63.5074 25.8938 64.0719 25.8834 65.0498C25.8781 65.8997 25.7736 67.0667 25.4094 68.4498C25.4094 68.4498 25.4391 68.4583 25.4878 68.4843C25.5453 68.512 25.6341 68.5657 25.7353 68.6538C26.2111 69.0679 26.9969 70.2658 26.5439 73.5549Z" fill="#FF48C2"/>
<path d="M20.6426 77.4788C20.5137 77.4788 20.3834 77.4738 20.2516 77.4635C18.4374 77.3214 16.8873 75.7595 15.9992 73.1785C15.0894 70.5385 14.9959 67.2409 15.7431 64.1311L15.7517 64.0948L15.7864 64.0807C15.866 64.0482 17.8268 63.2888 25.6287 63.4313L25.8336 63.4369L25.8454 63.4923C25.8505 63.5156 25.9671 64.0757 25.9567 65.0506C25.9523 65.7914 25.8683 66.9713 25.4964 68.4069C25.5044 68.4108 25.5133 68.4152 25.5225 68.4202C25.5673 68.4417 25.6647 68.4954 25.7837 68.5992C26.2895 69.0389 27.0702 70.269 26.6163 73.5646L26.6068 73.592C26.5825 73.6324 24.233 77.4788 20.6426 77.4788ZM15.876 64.2031C15.1455 67.2754 15.2402 70.5276 16.1376 73.1313C17.0061 75.6548 18.5095 77.181 20.2629 77.3184C23.8751 77.5974 26.3189 73.7781 26.4732 73.5298C26.9134 70.3132 26.1702 69.1286 25.6869 68.7086C25.5813 68.616 25.4967 68.5694 25.456 68.5497C25.4156 68.5281 25.3919 68.5202 25.3883 68.5193L25.3212 68.499L25.3384 68.4314C25.7199 66.9828 25.8054 65.7926 25.8101 65.0494C25.8184 64.2641 25.7412 63.7439 25.7124 63.5787L25.6246 63.5767C18.4113 63.4454 16.1696 64.1043 15.876 64.2031Z" fill="#390075"/>
<g opacity="0.3">
<path opacity="0.3" d="M26.5439 73.5549C26.5439 73.5549 24.0662 77.6871 20.2573 77.391C18.3789 77.2438 16.9013 75.575 16.0684 73.155C17.4398 74.1901 19.9278 75.3794 22.6845 73.4024C24.155 72.3481 25.1117 70.5459 25.7353 68.6538C26.2111 69.0679 26.9969 70.2658 26.5439 73.5549Z" fill="#390075"/>
</g>
<g opacity="0.3">
<path opacity="0.3" d="M25.4881 68.4845C24.8938 70.7541 23.8573 72.2912 23.8573 72.2912C24.3574 70.1195 24.5002 68.5131 24.5278 67.5072C24.5447 66.8902 23.9692 66.4246 23.3645 66.5655C16.8871 68.0758 15.8143 64.1482 15.8143 64.1482C15.8143 64.1482 17.7502 63.3605 25.6276 63.5041L25.7739 63.8884C25.8348 64.2812 25.8698 64.669 25.8837 65.05C25.9324 66.2945 25.7564 67.4632 25.4881 68.4845Z" fill="#390075"/>
</g>
<g opacity="0.6">
<path opacity="0.6" d="M17.2881 73.1549C16.4308 70.6674 16.2566 67.3833 17.0337 64.1479C17.0337 64.1479 18.5597 63.5289 24.3978 63.4891C17.5481 63.4443 15.814 64.1479 15.814 64.1479C15.0369 67.3833 15.2112 70.6674 16.0684 73.1549C16.9013 75.5749 18.3789 77.2438 20.2573 77.391C20.6105 77.4184 20.9522 77.4075 21.2817 77.3656C19.4968 77.1214 18.0919 75.49 17.2881 73.1549Z" fill="white"/>
</g>
<path d="M20.6547 77.9589C20.5096 77.9589 20.363 77.9533 20.214 77.9418C18.9218 77.8413 17.7461 77.1155 16.8137 75.8433C14.841 73.1514 14.2221 68.3999 15.2729 64.0193C15.3144 63.8462 15.4373 63.7032 15.6033 63.636C15.6876 63.6014 17.76 62.7964 25.7849 62.955C26.0437 62.96 26.2649 63.142 26.3183 63.3935C26.3358 63.4755 26.7202 65.3541 26.0485 68.1911C26.668 68.6903 27.5873 70.0496 27.0948 73.6309C27.0847 73.7046 27.0598 73.7754 27.0215 73.8391C26.917 74.0128 24.5044 77.9589 20.6547 77.9589ZM16.2842 64.5855C15.4041 68.5798 15.9666 72.8084 17.7134 75.1924C18.2261 75.8916 19.0907 76.7451 20.3006 76.8392C23.4191 77.0816 25.6279 73.9411 26.0075 73.3628C26.4807 69.7322 25.3583 69.041 25.2355 68.9773C25.0924 68.9451 24.9906 68.8623 24.9119 68.7369C24.8309 68.6078 24.8324 68.4574 24.8712 68.3102C25.4017 66.3022 25.3554 64.7628 25.2865 64.0524C19.4291 63.9612 17.0147 64.4051 16.2842 64.5855Z" fill="#390075"/>
<path d="M25.9591 68.5391C25.9197 68.7549 25.8701 68.9398 25.8134 69.1348C25.7561 69.3267 25.6941 69.5167 25.6225 69.7033C25.483 70.0779 25.3165 70.4427 25.1268 70.7957C24.933 71.1472 24.7133 71.4858 24.461 71.7981C24.2049 72.1083 23.9089 72.3873 23.5803 72.6049C23.781 72.2649 23.9365 71.9202 24.0766 71.5739C24.209 71.2227 24.3203 70.8685 24.4189 70.512C24.515 70.154 24.5943 69.7927 24.6682 69.4317C24.7035 69.251 24.7392 69.0705 24.77 68.8897L24.8603 68.3618L25.9591 68.5391Z" fill="#390075"/>
<path d="M64.2219 85.1812C62.2949 87.3502 57.2191 91.041 44.9997 91.041C32.7803 91.041 27.7045 87.3502 25.7775 85.1812C25.112 84.4333 24.8748 83.4 25.1345 82.4356C25.6676 80.4571 26.0336 77.3635 26.2287 75.3605C26.2566 75.0733 26.2809 74.8082 26.3035 74.5728V74.566C26.3661 73.8512 26.3993 73.4026 26.3993 73.4026C25.3539 71.0985 25.4358 68.7511 25.7739 66.9923C26.1031 65.268 26.6798 64.1098 26.6798 64.1098C26.6798 64.1098 26.5804 61.6067 44.9997 61.6067C63.419 61.6067 63.3196 64.1098 63.3196 64.1098C63.3196 64.1098 63.8963 65.268 64.2255 66.9923C64.5636 68.7511 64.6455 71.0985 63.6001 73.4026C63.6001 73.4026 64.0219 79.3093 64.8652 82.4356C65.1246 83.3997 64.8874 84.4333 64.2219 85.1812Z" fill="#FF48C2"/>
<path d="M44.9997 91.1135C32.7756 91.1135 27.6748 87.4269 25.7225 85.2289C25.0419 84.464 24.7955 83.4126 25.0639 82.4164C25.6145 80.3727 25.9844 77.114 26.1559 75.3531C26.1725 75.183 26.1877 75.0208 26.2022 74.8677L26.2307 74.5657C26.2862 73.9299 26.3183 73.5064 26.3251 73.4156C25.247 71.0269 25.391 68.5974 25.7021 66.9787C26.0108 65.3623 26.5433 64.2248 26.608 64.091C26.6136 64.0426 26.6436 63.9223 26.7986 63.7624C27.4468 63.0924 30.5182 61.5341 45 61.5341C59.4818 61.5341 62.5531 63.0924 63.2014 63.7624C63.3561 63.9223 63.3863 64.0426 63.392 64.091C63.4564 64.2248 63.9892 65.3623 64.2979 66.9787C64.609 68.5977 64.753 71.0269 63.6749 73.4156C63.7019 73.7807 64.1275 79.4184 64.9364 82.4167C65.2044 83.4129 64.9584 84.4643 64.2774 85.2292C62.3243 87.4269 57.2238 91.1135 44.9997 91.1135ZM44.9997 61.6795C30.5743 61.6795 27.5392 63.2065 26.9039 63.8633C26.7588 64.0131 26.7531 64.1063 26.7531 64.1072L26.7537 64.1258L26.7454 64.1423C26.7395 64.1538 26.1693 65.3125 25.8457 67.0058C25.5376 68.608 25.3951 71.013 26.4661 73.3728L26.4738 73.3896L26.4726 73.4082C26.4726 73.4082 26.4394 73.8568 26.3765 74.5725L26.3477 74.8819C26.3334 75.0349 26.318 75.1974 26.3014 75.3676C26.1292 77.1329 25.7582 80.4007 25.2052 82.4545C24.9496 83.4035 25.1841 84.4047 25.8321 85.1331C27.7683 87.3125 32.8329 90.9684 44.9997 90.9684C57.1665 90.9684 62.2311 87.3125 64.167 85.1331C64.815 84.405 65.0495 83.4035 64.7939 82.4545C63.9586 79.3574 63.5309 73.4669 63.5264 73.4079L63.5253 73.3896L63.533 73.3728C64.6034 71.0133 64.4612 68.6083 64.1534 67.0061C63.8298 65.3128 63.2593 64.1541 63.2537 64.1426L63.2453 64.126L63.2459 64.1075C63.2453 64.0854 62.9642 61.6795 44.9997 61.6795Z" fill="#390075"/>
<g opacity="0.3">
<path opacity="0.3" d="M64.8649 82.4357C64.3318 80.4571 63.9658 77.3636 63.7707 75.3606C63.7428 75.0733 63.7185 74.8082 63.6959 74.5729C63.7707 77.9711 62.443 87.5927 44.9997 87.5927C27.5564 87.5927 26.2287 77.9711 26.3035 74.5729C26.2809 74.8082 26.2563 75.073 26.2287 75.3606C26.0336 77.3636 25.6676 80.4568 25.1345 82.4357C24.8748 83.4 25.112 84.4334 25.7775 85.1812C27.7045 87.3503 32.7803 91.041 44.9997 91.041C57.2191 91.041 62.2949 87.3503 64.2219 85.1812C64.8874 84.4334 65.1246 83.3997 64.8649 82.4357Z" fill="#390075"/>
</g>
<g opacity="0.3">
<path opacity="0.3" d="M44.9997 75.4609C44.9997 75.4609 35.1306 79.8682 26.2286 75.3606C26.342 74.199 26.3993 73.4027 26.3993 73.4027C26.3993 73.4027 32.0691 77.9658 44.9997 75.4609Z" fill="#390075"/>
</g>
<g opacity="0.3">
<path opacity="0.3" d="M44.9997 75.4609C44.9997 75.4609 54.8688 79.8682 63.7707 75.3606C63.6574 74.199 63.6001 73.4027 63.6001 73.4027C63.6001 73.4027 57.93 77.9658 44.9997 75.4609Z" fill="#390075"/>
</g>
<g opacity="0.3">
<path opacity="0.3" d="M64.2255 66.9923C64.0634 67.2607 63.8562 67.534 63.6001 67.8112C61.5071 70.0696 47.4441 67.4417 45.2793 67.0215C45.0941 66.9855 44.9056 66.9855 44.7204 67.0215C42.5556 67.4417 28.4926 70.0696 26.3996 67.8112C26.1435 67.5343 25.9363 67.2607 25.7742 66.9923C26.1034 65.268 26.6801 64.1099 26.6801 64.1099C26.6801 64.1099 26.5804 61.6067 44.9997 61.6067C63.419 61.6067 63.3196 64.1099 63.3196 64.1099C63.3196 64.1099 63.896 65.268 64.2255 66.9923Z" fill="#390075"/>
</g>
<g opacity="0.6">
<path opacity="0.6" d="M64.8649 82.4357C64.3318 80.4571 63.9658 77.3636 63.7707 75.3606C63.6574 74.1989 63.6001 73.4027 63.6001 73.4027C64.6455 71.0986 64.5636 68.7511 64.2255 66.9923C63.8963 65.268 63.3196 64.1099 63.3196 64.1099C63.3196 64.1099 63.3392 63.5773 61.5549 63.0037C61.5528 63.0031 61.5507 63.0022 61.5487 63.0016C61.4837 62.9807 61.416 62.9597 61.3459 62.9388C61.3438 62.9382 61.3418 62.9376 61.3394 62.9368C60.979 62.8291 60.5534 62.7206 60.05 62.6144C60.0396 62.6123 60.0286 62.61 60.0179 62.6079C59.9306 62.5896 59.8413 62.5714 59.7493 62.5534C59.7282 62.5492 59.7068 62.5451 59.6855 62.541C59.6023 62.5248 59.5174 62.5088 59.4305 62.4929C59.4029 62.4879 59.3747 62.4829 59.3468 62.4776C59.2637 62.4625 59.1791 62.4478 59.0924 62.4328C59.0603 62.4271 59.028 62.4218 58.9953 62.4162C58.9092 62.4018 58.8208 62.3873 58.7311 62.3732C58.6973 62.3679 58.6638 62.3623 58.6293 62.357C58.5361 62.3425 58.4402 62.3281 58.3432 62.3136C58.3102 62.3086 58.2779 62.3039 58.2446 62.2989C58.1357 62.2832 58.0241 62.2676 57.9104 62.252C57.8875 62.2487 57.8656 62.2458 57.8427 62.2425C57.564 62.2051 57.2713 62.1685 56.9638 62.1334C56.9344 62.1302 56.9035 62.1269 56.8739 62.1234C56.7519 62.1095 56.6284 62.096 56.5016 62.0827C56.4512 62.0774 56.3989 62.0721 56.3476 62.0668C56.2386 62.0556 56.1288 62.0444 56.0166 62.0334C55.9558 62.0276 55.8937 62.0217 55.832 62.016C55.7257 62.006 55.6183 61.996 55.509 61.9863C55.4414 61.9804 55.3725 61.9742 55.3036 61.9683C55.1959 61.9591 55.0866 61.95 54.9759 61.9409C54.9038 61.935 54.8311 61.9291 54.7577 61.9234C54.6458 61.9146 54.5322 61.9061 54.4173 61.8978C54.3419 61.8922 54.2665 61.8866 54.1896 61.8813C54.0706 61.8727 53.9489 61.8648 53.8266 61.8565C53.7512 61.8515 53.6767 61.8465 53.6001 61.8415C53.4653 61.8329 53.3273 61.8247 53.1887 61.8164C53.1213 61.8123 53.0554 61.8081 52.9871 61.8043C52.7871 61.7928 52.5835 61.7819 52.3754 61.7713C52.3668 61.771 52.3585 61.7704 52.3496 61.7698C52.1329 61.7589 51.9111 61.7486 51.6858 61.7385C51.6146 61.7353 51.5407 61.7326 51.4686 61.7294C51.3133 61.7229 51.1575 61.7164 50.9981 61.7102C50.9064 61.7067 50.812 61.7034 50.7188 61.7002C50.5739 61.6949 50.4288 61.6899 50.2806 61.6852C50.1806 61.6819 50.0785 61.679 49.9767 61.6757C49.8303 61.6713 49.6828 61.6669 49.5332 61.663C49.4272 61.6601 49.3201 61.6574 49.2123 61.6548C49.063 61.651 48.9122 61.6477 48.7597 61.6445C48.6478 61.6421 48.5356 61.6398 48.4219 61.6374C48.2669 61.6344 48.1096 61.6318 47.9514 61.6291C47.8377 61.6274 47.7243 61.6253 47.6092 61.6238C47.4423 61.6215 47.2722 61.6194 47.1019 61.6176C46.9906 61.6165 46.8801 61.615 46.7673 61.6138C46.578 61.612 46.3847 61.6109 46.1912 61.6097C46.0929 61.6091 45.9968 61.6082 45.8976 61.6079C45.6029 61.6064 45.304 61.6058 44.9991 61.6058C44.6943 61.6058 44.3954 61.6067 44.1006 61.6079C44.0015 61.6085 43.9053 61.6091 43.807 61.6097C43.6135 61.6109 43.42 61.612 43.2309 61.6138C43.1181 61.615 43.0077 61.6162 42.8964 61.6176C42.726 61.6194 42.5559 61.6215 42.3891 61.6238C42.2736 61.6256 42.1602 61.6274 42.0468 61.6291C41.8886 61.6318 41.7313 61.6344 41.5763 61.6374C41.4627 61.6395 41.3505 61.6418 41.2386 61.6445C41.086 61.6477 40.9352 61.6512 40.7859 61.6548C40.6781 61.6574 40.571 61.6601 40.465 61.663C40.3154 61.6672 40.1679 61.6713 40.0215 61.6757C39.9197 61.6787 39.8179 61.6819 39.7176 61.6852C39.5695 61.6899 39.4243 61.6952 39.2795 61.7002C39.1863 61.7034 39.0922 61.7067 39.0001 61.7102C38.8407 61.7164 38.6849 61.7229 38.5297 61.7294C38.4575 61.7323 38.3836 61.7353 38.3124 61.7385C38.0871 61.7486 37.8654 61.7589 37.6487 61.7698C37.6401 61.7704 37.6317 61.7707 37.6228 61.7713C37.4151 61.7819 37.2111 61.7928 37.0111 61.8043C36.9428 61.8081 36.8769 61.8123 36.8095 61.8164C36.6709 61.8247 36.5329 61.8329 36.3981 61.8415C36.3215 61.8465 36.247 61.8515 36.1716 61.8565C36.0493 61.8645 35.9276 61.8727 35.8086 61.8813C35.7317 61.8866 35.6566 61.8922 35.5809 61.8978C35.4661 61.9063 35.3524 61.9149 35.2405 61.9234C35.1669 61.9291 35.0944 61.935 35.0223 61.9409C34.9116 61.9497 34.8023 61.9588 34.6946 61.9683C34.6257 61.9742 34.5569 61.9801 34.4892 61.9863C34.38 61.996 34.2725 62.006 34.1662 62.016C34.1045 62.0219 34.0425 62.0276 33.9816 62.0334C33.8691 62.0444 33.7596 62.0556 33.6506 62.0668C33.5993 62.0721 33.547 62.0774 33.4966 62.0827C33.3698 62.096 33.2464 62.1098 33.1244 62.1234C33.0947 62.1266 33.0638 62.1299 33.0344 62.1334C32.7266 62.1688 32.4339 62.2051 32.1555 62.2425C32.1323 62.2455 32.1107 62.2487 32.0878 62.252C31.9744 62.2673 31.8625 62.2829 31.7536 62.2989C31.7203 62.3036 31.688 62.3086 31.655 62.3136C31.558 62.3281 31.4621 62.3422 31.3689 62.357C31.3345 62.3623 31.3009 62.3679 31.2671 62.3732C31.1774 62.3873 31.089 62.4018 31.0029 62.4162C30.9702 62.4218 30.9379 62.4271 30.9058 62.4328C30.8192 62.4475 30.7346 62.4625 30.6515 62.4776C30.6233 62.4826 30.5954 62.4876 30.5677 62.4929C30.4808 62.5088 30.3959 62.5251 30.3128 62.541C30.2917 62.5451 30.27 62.5492 30.2489 62.5534C30.1569 62.5714 30.0676 62.5896 29.9803 62.6079C29.9696 62.6103 29.9586 62.6123 29.9483 62.6144C29.4448 62.7206 29.0192 62.8291 28.6588 62.9368C28.6567 62.9373 28.6547 62.9379 28.6523 62.9388C28.5822 62.9597 28.5149 62.9807 28.4496 63.0016C28.4475 63.0022 28.4454 63.0031 28.4433 63.0037C26.6591 63.5776 26.6787 64.1099 26.6787 64.1099C26.6787 64.1099 26.1019 65.268 25.7727 66.9923C25.4346 68.7511 25.3527 71.0986 26.3982 73.4027C26.3982 73.4027 26.3406 74.1989 26.2275 75.3606C26.0325 77.3636 25.6665 80.4568 25.1334 82.4357C24.8736 83.4 25.1108 84.4333 25.7763 85.1812C27.0135 86.5738 29.5487 88.5936 34.4387 89.8611C30.3389 88.5936 28.1257 86.7991 26.996 85.5274C26.3305 84.7796 26.0933 83.7462 26.353 82.7819C26.8861 80.8033 27.2521 77.7098 27.4472 75.7068C27.5605 74.5451 27.7844 74.2933 27.7844 74.2933C26.7389 71.9892 26.6543 69.0973 26.9924 67.3385C27.3216 65.6142 27.8983 64.4561 27.8983 64.4561C27.8983 64.4561 27.8066 62.0653 44.9985 61.9571C62.1901 62.0653 62.0987 64.4561 62.0987 64.4561C62.0987 64.4561 62.6754 65.6142 63.0046 67.3385C63.3427 69.0973 63.2581 71.9889 62.2127 74.2933C62.2127 74.2933 62.4368 74.5451 62.5499 75.7068C62.7449 77.7098 63.1109 80.8031 63.644 82.7819C63.9037 83.7462 63.6666 84.7796 63.0011 85.5274C61.8713 86.7991 59.6578 88.5936 55.5583 89.8611C60.4483 88.5936 62.9836 86.5738 64.2207 85.1812C64.8874 84.4333 65.1246 83.3997 64.8649 82.4357Z" fill="white"/>
</g>
<g opacity="0.3">
<path opacity="0.3" d="M44.9997 80.5807C56.3627 80.5807 49.6543 82.9179 56.114 82.9179C62.5736 82.9179 63.6936 76.7971 61.1919 74.2376C58.6902 71.6781 52.1189 73.8666 52.1189 73.8666H44.9997H37.8808C37.8808 73.8666 31.3095 71.6781 28.8078 74.2376C26.3061 76.7971 27.4264 82.9179 33.8857 82.9179C40.3451 82.9179 33.6364 80.5807 44.9997 80.5807Z" fill="#390075"/>
</g>
<path d="M44.9997 91.5945C32.5889 91.5945 27.3682 87.8056 25.3607 85.5472C24.572 84.6598 24.2862 83.4433 24.5967 82.2926C25.3468 79.5125 25.765 74.398 25.8339 73.4997C23.8938 69.0587 25.8368 64.5947 26.1441 63.9406C26.1779 63.8029 26.261 63.6244 26.4492 63.4295C27.9319 61.8972 34.5198 61.0532 44.9994 61.0532C55.4791 61.0532 62.0672 61.8972 63.5496 63.4295C63.7381 63.6242 63.8209 63.8026 63.8548 63.9406C64.162 64.5947 66.105 69.0587 64.1649 73.4997C64.2341 74.3985 64.6526 79.514 65.4021 82.2926C65.7126 83.443 65.4271 84.6598 64.6384 85.5472C62.6312 87.8059 57.4105 91.5945 44.9997 91.5945ZM27.2227 64.2296C27.2129 64.2729 27.1981 64.3154 27.1782 64.3555C27.1562 64.4 24.971 68.9145 26.9063 73.1756C26.9443 73.259 26.9609 73.3507 26.9541 73.4422C26.9369 73.6855 26.519 79.4382 25.6715 82.5792C25.4581 83.3708 25.6534 84.2068 26.1945 84.8155C28.0779 86.9344 33.0252 90.4889 44.9994 90.4889C56.9736 90.4889 61.9209 86.9344 63.8043 84.8155C64.3454 84.2068 64.5407 83.3711 64.3273 82.5795C63.4802 79.4385 63.0619 73.6858 63.0447 73.4422C63.0382 73.3507 63.0545 73.259 63.0925 73.1756C65.0278 68.9145 62.8429 64.4 62.8206 64.3549C62.8004 64.3142 62.7856 64.2712 62.7761 64.2272C62.6152 64.0078 60.7852 62.1596 44.9997 62.1596C29.9833 62.1596 27.581 63.8562 27.2518 64.1963C27.2527 64.1954 27.253 64.1948 27.2533 64.1948C27.2536 64.1948 27.2299 64.2216 27.2257 64.2258C27.2248 64.2269 27.2239 64.2281 27.2227 64.2296ZM62.7633 64.0957C62.7633 64.0957 62.7633 64.096 62.7633 64.0957C62.7633 64.0957 62.7633 64.096 62.7633 64.0957ZM62.7633 64.0945V64.0948V64.0945ZM62.7636 64.0934V64.0936V64.0934ZM62.7636 64.0922C62.7636 64.0922 62.7636 64.0925 62.7636 64.0928C62.7636 64.0925 62.7636 64.0922 62.7636 64.0922ZM62.7636 64.091C62.7636 64.0913 62.7636 64.0913 62.7636 64.0913V64.091ZM62.7636 64.0898V64.0901V64.0898ZM27.2355 64.0886C27.2355 64.0889 27.2355 64.0892 27.2355 64.0895C27.2355 64.0892 27.2355 64.0889 27.2355 64.0886Z" fill="#390075"/>
<path d="M44.9997 62.9686C44.9997 62.9686 38.4406 62.9234 34.0721 61.6067C34.0721 61.6067 37.6317 63.7769 44.9997 65.4089C52.3677 63.7766 55.9273 61.6067 55.9273 61.6067C51.5585 62.9234 44.9997 62.9686 44.9997 62.9686Z" fill="#390075"/>
<path d="M26.8366 73.0609C26.8303 73.0553 26.8419 73.0709 26.8472 73.0792L26.8689 73.1116L26.917 73.1833C26.9511 73.2325 26.9856 73.2853 27.0233 73.3375C27.0966 73.444 27.1764 73.5528 27.2613 73.6648C27.4332 73.8872 27.6321 74.1078 27.8553 74.3487C27.6926 74.3676 27.5267 74.372 27.3634 74.3555C27.1984 74.3431 27.0369 74.308 26.8749 74.2641C26.7131 74.219 26.5561 74.1561 26.4035 74.0768C26.3278 74.037 26.2539 73.9913 26.1818 73.9403C26.1455 73.9143 26.1108 73.8872 26.0752 73.8571L26.0224 73.8093C26.0034 73.7905 25.9909 73.7787 25.9615 73.7448L26.8366 73.0609Z" fill="#390075"/>
<path d="M64.0373 73.7448C64.0079 73.7787 63.9955 73.7905 63.9765 73.8093L63.9236 73.8571C63.888 73.8872 63.8533 73.9143 63.8171 73.9403C63.7449 73.9913 63.6713 74.0367 63.5953 74.0768C63.4431 74.1561 63.2857 74.219 63.124 74.2641C62.9619 74.308 62.8004 74.3431 62.6354 74.3555C62.4721 74.372 62.3062 74.3679 62.1435 74.3487C62.3667 74.1075 62.5659 73.8872 62.7375 73.6648C62.8224 73.5528 62.9022 73.4437 62.9755 73.3375C63.0132 73.2853 63.0477 73.2328 63.0818 73.1833L63.1299 73.1116L63.1516 73.0791C63.1572 73.0712 63.1685 73.0553 63.1622 73.0609L64.0373 73.7448Z" fill="#390075"/>
<path d="M32.0053 91.4849L31.5036 90.5972C31.5627 90.5639 37.4845 87.1294 37.773 78.1846C38.077 68.7465 40.454 65.913 40.5552 65.7968L41.33 66.463L40.9426 66.1298L41.3326 66.4598C41.3101 66.4863 39.0871 69.2236 38.7971 78.2168C38.4893 87.7608 32.2698 91.3374 32.0053 91.4849Z" fill="#390075"/>
<path d="M32.3754 92.5265C33.2004 92.1869 33.5922 91.2472 33.2505 90.4276C32.9087 89.6079 31.9629 89.2187 31.1379 89.5582C30.3129 89.8977 29.9211 90.8374 30.2629 91.6571C30.6046 92.4768 31.5504 92.866 32.3754 92.5265Z" fill="#390075"/>
<path d="M57.9938 91.4849C57.7293 91.3374 51.5098 87.7608 51.2023 78.2171C50.9123 69.2239 48.6893 66.4866 48.6668 66.4601L49.4445 65.7968C49.5454 65.913 51.9224 68.7465 52.2267 78.1846C52.5152 87.1294 58.437 90.5639 58.4969 90.5975L57.9938 91.4849Z" fill="#390075"/>
<path d="M59.7415 91.6561C60.0832 90.8364 59.6914 89.8968 58.8664 89.5572C58.0414 89.2177 57.0956 89.6069 56.7539 90.4266C56.4121 91.2462 56.8039 92.1859 57.6289 92.5255C58.4539 92.865 59.3997 92.4758 59.7415 91.6561Z" fill="#390075"/>
<path d="M44.9997 78.8496C56.3627 78.8496 49.6543 81.1867 56.114 81.1867C62.5736 81.1867 63.6936 75.0659 61.1919 72.5064C58.6902 69.9469 52.1189 72.1354 52.1189 72.1354H44.9997H37.8808C37.8808 72.1354 31.3095 69.9469 28.8078 72.5064C26.3061 75.0659 27.4264 81.1867 33.8857 81.1867C40.3451 81.1867 33.6364 78.8496 44.9997 78.8496Z" fill="white"/>
<path d="M56.1137 81.2593C53.3015 81.2593 52.9506 80.8181 52.5446 80.3073C52.0281 79.6582 51.4427 78.9221 44.9997 78.9221C38.5567 78.9221 37.9713 79.6579 37.4548 80.3073C37.0485 80.8181 36.6976 81.2593 33.8857 81.2593C31.0201 81.2593 28.8497 80.0213 27.9307 77.8625C27.134 75.9908 27.473 73.7675 28.7553 72.4557C31.2318 69.9216 37.4911 71.9302 37.8927 72.0626H52.107C52.5084 71.9302 58.768 69.9216 61.2444 72.4557C62.5264 73.7675 62.8657 75.9911 62.069 77.8625C61.1497 80.0213 58.9793 81.2593 56.1137 81.2593ZM44.9997 78.7771C51.5137 78.7771 52.1225 79.5423 52.6595 80.2174C53.0424 80.6984 53.3727 81.1139 56.114 81.1139C58.9179 81.1139 61.0393 79.9083 61.934 77.8059C62.7084 75.9867 62.3816 73.8279 61.1393 72.5569C58.6985 70.0596 52.2074 72.1824 52.1421 72.2042L52.1189 72.208H37.8689L37.8576 72.2042C37.7923 72.1824 31.3012 70.0593 28.8604 72.5569C27.6181 73.8279 27.2913 75.9864 28.0658 77.8059C28.9604 79.9083 31.0819 81.1139 33.8857 81.1139C36.6267 81.1139 36.9573 80.6984 37.34 80.2174C37.8769 79.5423 38.4854 78.7771 44.9997 78.7771Z" fill="#390075"/>
<path d="M56.1137 81.7397C53.2795 81.7397 52.7102 81.2905 52.1652 80.6055C51.7615 80.0979 51.2085 79.4028 44.9997 79.4028C38.7909 79.4028 38.2379 80.0979 37.8339 80.6055C37.2889 81.2905 36.7196 81.7397 33.8854 81.7397C30.8162 81.7397 28.4834 80.3946 27.4851 78.0498C26.6151 76.0055 26.9945 73.5675 28.408 72.1213C30.9869 69.4822 37.1215 71.313 37.9686 71.5825H52.0296C52.8767 71.3127 59.0114 69.4825 61.5902 72.1213C63.0037 73.5675 63.3834 76.0055 62.5131 78.0498C61.5157 80.3946 59.1829 81.7397 56.1137 81.7397ZM44.9997 78.2966C51.2637 78.2966 52.2828 78.9693 53.0388 79.9195C53.3436 80.3026 53.6069 80.6338 56.114 80.6338C58.7142 80.6338 60.6733 79.5349 61.4887 77.6189C62.1895 75.9722 61.9034 74.0282 60.7923 72.8916C58.9434 70.9998 54.032 72.083 52.2952 72.6598L52.2092 72.6884H37.7897L37.7036 72.6598C35.9671 72.083 31.0557 70.9998 29.2068 72.8916C28.0957 74.0282 27.8096 75.9722 28.5104 77.6189C29.3258 79.5349 31.2849 80.6338 33.8851 80.6338C36.3922 80.6338 36.6555 80.3029 36.9603 79.9195C37.7163 78.9693 38.7357 78.2966 44.9997 78.2966Z" fill="#390075"/>
<path d="M38.4296 79.8658L37.3313 79.6856C37.6534 77.7469 37.3284 72.2236 37.3251 72.1682L38.4362 72.1024C38.4501 72.3345 38.7722 77.8056 38.4296 79.8658Z" fill="#390075"/>
<path d="M51.5695 79.8658C51.2273 77.8056 51.5493 72.3345 51.5633 72.1024L52.6743 72.1682C52.671 72.2236 52.3457 77.7469 52.6681 79.6856L51.5695 79.8658Z" fill="#390075"/>
<path d="M46.1176 76.3087H43.8812C43.5708 76.3087 43.319 76.0586 43.319 75.7501V75.3833C43.319 75.0748 43.5708 74.8247 43.8812 74.8247H46.1176C46.428 74.8247 46.6798 75.0748 46.6798 75.3833V75.7501C46.6798 76.0586 46.428 76.3087 46.1176 76.3087Z" fill="#390075"/>
<path d="M29.9527 76.0799H35.7213C35.7213 76.0799 35.8893 79.4557 32.837 79.4557C29.7844 79.4557 29.9527 76.0799 29.9527 76.0799Z" fill="#7F6596"/>
<path d="M32.8367 79.5282C31.9721 79.5282 31.2781 79.2613 30.7738 78.7349C29.8087 77.7275 29.8761 76.1433 29.8794 76.0763L29.8827 76.0073H35.7908L35.7941 76.0763C35.7973 76.1433 35.8647 77.7275 34.8997 78.7349C34.3954 79.2613 33.7014 79.5282 32.8367 79.5282ZM30.0245 76.1527C30.0234 76.468 30.0694 77.7891 30.8806 78.6352C31.3561 79.1313 32.0145 79.3828 32.837 79.3828C33.6598 79.3828 34.3185 79.131 34.794 78.6346C35.6056 77.7874 35.651 76.4677 35.6498 76.1527H30.0245Z" fill="#390075"/>
<g opacity="0.6">
<path opacity="0.6" d="M30.099 76.7103H35.6881C35.7338 76.3379 35.7213 76.0798 35.7213 76.0798H29.9527C29.9527 76.0798 29.92 76.751 30.1534 77.4945C30.0824 77.0406 30.099 76.7103 30.099 76.7103Z" fill="white"/>
</g>
<path d="M32.8367 79.8018C31.8937 79.8018 31.1326 79.5063 30.5743 78.9236C29.5288 77.8324 29.6007 76.1347 29.6042 76.063C29.6134 75.8787 29.7663 75.7339 29.9521 75.7339H35.7208C35.9066 75.7339 36.0597 75.8787 36.0686 76.063C36.0722 76.1347 36.144 77.8324 35.0986 78.9236C34.5408 79.5063 33.7798 79.8018 32.8367 79.8018ZM30.3092 76.426C30.3422 76.9117 30.4864 77.8292 31.0822 78.4488C31.5034 78.887 32.0941 79.1094 32.837 79.1094C33.58 79.1094 34.1707 78.887 34.5922 78.4488C35.1876 77.8292 35.3319 76.912 35.3651 76.426H30.3092Z" fill="#390075"/>
<path d="M35.111 75.0381H30.5627C30.2249 75.0381 29.9509 74.766 29.9509 74.4303V73.7323C29.9509 73.3967 30.2249 73.1245 30.5627 73.1245H35.111C35.4488 73.1245 35.7228 73.3967 35.7228 73.7323V74.4303C35.7228 74.766 35.4488 75.0381 35.111 75.0381Z" fill="#7F6596"/>
<path d="M35.111 75.1108H30.5627C30.1851 75.1108 29.8776 74.8056 29.8776 74.4305V73.7324C29.8776 73.3573 30.1848 73.0518 30.5627 73.0518H35.111C35.4886 73.0518 35.7961 73.357 35.7961 73.7324V74.4305C35.7961 74.8056 35.4889 75.1108 35.111 75.1108ZM30.5627 73.1974C30.2659 73.1974 30.0242 73.4375 30.0242 73.7324V74.4305C30.0242 74.7254 30.2659 74.9654 30.5627 74.9654H35.111C35.4079 74.9654 35.6495 74.7254 35.6495 74.4305V73.7324C35.6495 73.4375 35.4079 73.1974 35.111 73.1974H30.5627Z" fill="#390075"/>
<g opacity="0.6">
<path opacity="0.6" d="M30.0973 74.3142C30.0973 73.9786 30.3712 73.7064 30.709 73.7064H35.2577C35.445 73.7064 35.6109 73.7919 35.7231 73.9237V73.7323C35.7231 73.3967 35.4491 73.1245 35.1113 73.1245H30.5627C30.2249 73.1245 29.9509 73.3967 29.9509 73.7323V74.4304C29.9509 74.5799 30.0073 74.7149 30.0973 74.8208V74.3142Z" fill="white"/>
</g>
<path d="M35.111 75.3844H30.5627C30.0331 75.3844 29.6024 74.9565 29.6024 74.4304V73.7323C29.6024 73.2062 30.0331 72.7783 30.5627 72.7783H35.111C35.6406 72.7783 36.0713 73.2062 36.0713 73.7323V74.4304C36.0713 74.9565 35.6406 75.3844 35.111 75.3844ZM30.5627 73.4708C30.4175 73.4708 30.2994 73.5881 30.2994 73.7323V74.4304C30.2994 74.5746 30.4175 74.692 30.5627 74.692H35.111C35.2562 74.692 35.3743 74.5746 35.3743 74.4304V73.7323C35.3743 73.5881 35.2562 73.4708 35.111 73.4708H30.5627Z" fill="#390075"/>
<path d="M60.0467 76.0799H54.2781C54.2781 76.0799 54.1101 79.4557 57.1624 79.4557C60.2147 79.4557 60.0467 76.0799 60.0467 76.0799Z" fill="#7F6596"/>
<path d="M57.1624 79.5282C56.2977 79.5282 55.6037 79.2613 55.0994 78.7349C54.1344 77.7275 54.2018 76.1433 54.2051 76.0763L54.2083 76.0073H60.1164L60.1197 76.0763C60.123 76.1433 60.1904 77.7275 59.2254 78.7349C58.721 79.2613 58.0268 79.5282 57.1624 79.5282ZM54.3499 76.1527C54.3487 76.468 54.3947 77.7891 55.206 78.6352C55.6815 79.1313 56.3399 79.3828 57.1624 79.3828C57.9849 79.3828 58.6433 79.1313 59.1188 78.6352C59.9297 77.7891 59.976 76.468 59.9749 76.1527H54.3499Z" fill="#390075"/>
<path d="M57.1624 79.8018C56.2194 79.8018 55.4583 79.5063 54.8999 78.9236C53.8545 77.8324 53.9263 76.1347 53.9299 76.063C53.9391 75.8787 54.092 75.7339 54.2778 75.7339H60.0464C60.2322 75.7339 60.3854 75.8787 60.3943 76.063C60.3978 76.1347 60.4697 77.8324 59.4242 78.9236C58.8662 79.5063 58.1051 79.8018 57.1624 79.8018ZM54.6343 76.426C54.6675 76.9114 54.8115 77.8289 55.4072 78.4488C55.8287 78.887 56.4191 79.1094 57.1624 79.1094C57.9054 79.1094 58.496 78.8873 58.9173 78.4488C59.513 77.8292 59.657 76.912 59.6902 76.426H54.6343Z" fill="#390075"/>
<path d="M54.888 75.0381H59.4364C59.7742 75.0381 60.0482 74.766 60.0482 74.4303V73.7323C60.0482 73.3967 59.7742 73.1245 59.4364 73.1245H54.888C54.5503 73.1245 54.2763 73.3967 54.2763 73.7323V74.4303C54.2763 74.766 54.5503 75.0381 54.888 75.0381Z" fill="#7F6596"/>
<path d="M59.4364 75.1108H54.8881C54.5105 75.1108 54.203 74.8056 54.203 74.4305V73.7324C54.203 73.3573 54.5102 73.0518 54.8881 73.0518H59.4364C59.814 73.0518 60.1215 73.357 60.1215 73.7324V74.4305C60.1215 74.8056 59.8143 75.1108 59.4364 75.1108ZM54.8881 73.1974C54.5909 73.1974 54.3496 73.4375 54.3496 73.7324V74.4305C54.3496 74.7254 54.5912 74.9654 54.8881 74.9654H59.4364C59.7332 74.9654 59.9749 74.7254 59.9749 74.4305V73.7324C59.9749 73.4375 59.7332 73.1974 59.4364 73.1974H54.8881Z" fill="#390075"/>
<path d="M59.4364 75.3844H54.8881C54.3585 75.3844 53.9278 74.9565 53.9278 74.4304V73.7323C53.9278 73.2062 54.3585 72.7783 54.8881 72.7783H59.4364C59.966 72.7783 60.3967 73.2062 60.3967 73.7323V74.4304C60.3967 74.9565 59.966 75.3844 59.4364 75.3844ZM54.8881 73.4708C54.7429 73.4708 54.6248 73.5881 54.6248 73.7323V74.4304C54.6248 74.5746 54.7429 74.692 54.8881 74.692H59.4364C59.5816 74.692 59.6997 74.5746 59.6997 74.4304V73.7323C59.6997 73.5881 59.5816 73.4708 59.4364 73.4708H54.8881Z" fill="#390075"/>
<g opacity="0.3">
<path opacity="0.3" d="M56.1137 78.4169C49.6543 78.4169 56.3627 76.0798 44.9994 76.0798C33.6361 76.0798 40.3448 78.4169 33.8851 78.4169C30.2786 78.4169 28.3379 76.5086 27.7615 74.3776C26.9636 77.2565 28.7084 81.1867 33.8851 81.1867C40.3445 81.1867 33.6361 78.8496 44.9994 78.8496C56.3627 78.8496 49.654 81.1867 56.1137 81.1867C61.2904 81.1867 63.0352 77.2565 62.2373 74.3776C61.6608 76.5086 59.7202 78.4169 56.1137 78.4169Z" fill="#390075"/>
</g>
<path d="M39.424 70.7258H36.6362V72.1355H39.424V70.7258Z" fill="#390075"/>
<path d="M40.2834 70.7258H35.7389C35.3749 70.7258 35.0802 70.4327 35.0802 70.0714V69.8225C35.0802 69.4609 35.3752 69.1681 35.7389 69.1681H40.2834C40.6473 69.1681 40.942 69.4612 40.942 69.8225V70.0714C40.9423 70.4327 40.6473 70.7258 40.2834 70.7258Z" fill="#390075"/>
<path d="M53.3632 70.7258H50.5754V72.1355H53.3632V70.7258Z" fill="#390075"/>
<path d="M49.7158 70.7258H54.2603C54.6242 70.7258 54.9189 70.4327 54.9189 70.0714V69.8225C54.9189 69.4609 54.6239 69.1681 54.2603 69.1681H49.7158C49.3518 69.1681 49.0571 69.4612 49.0571 69.8225V70.0714C49.0568 70.4327 49.3518 70.7258 49.7158 70.7258Z" fill="#390075"/>
<path d="M66.7171 81.6479C65.6176 81.9629 64.3107 82.1846 62.7844 82.2124C62.7844 82.2124 65.8459 75.4248 61.9254 71.5297C61.9254 71.5297 62.6188 71.5176 63.476 71.6992C63.6817 71.7408 63.8942 71.7963 64.1103 71.8638C64.1103 71.8638 64.9432 69.6998 63.9168 65.7183C63.9168 65.7183 65.3769 63.9179 64.3977 61.955C64.3977 61.955 64.3994 61.955 64.4012 61.9567C64.5268 62.0381 68.5987 64.6728 70.4595 71.4866C70.7454 72.5288 70.9787 73.6677 71.1372 74.9108C71.5243 77.9294 69.6617 80.8048 66.7171 81.6479Z" fill="#FF48C2"/>
<path d="M62.6704 82.287L62.7176 82.1823C62.7482 82.1148 65.7129 75.3951 61.8737 71.5808L61.7517 71.4596L61.9242 71.4566C61.9316 71.4566 62.6357 71.4463 63.4914 71.628C63.6749 71.6651 63.8675 71.7138 64.064 71.773C64.1872 71.3858 64.7574 69.2719 63.8461 65.736L63.8369 65.7006L63.8601 65.6723C63.8743 65.6546 65.279 63.884 64.3324 61.9869L64.2801 61.8819H64.4285L64.4469 61.8987C64.682 62.0523 68.7008 64.7661 70.5308 71.4672C70.8309 72.5607 71.0594 73.7162 71.2108 74.9011C71.6074 77.9953 69.7264 80.862 66.7379 81.7176C65.5132 82.0685 64.1836 82.2593 62.7862 82.2847L62.6704 82.287ZM62.1014 71.6049C65.5666 75.2408 63.2554 81.269 62.896 82.1372C64.2391 82.1042 65.5173 81.916 66.6969 81.5781C69.6154 80.7426 71.4524 77.9422 71.0651 74.9197C70.9149 73.7412 70.6875 72.5926 70.3892 71.5056C68.7744 65.5924 65.4523 62.8156 64.5734 62.1665C65.2792 63.9165 64.1718 65.5004 63.9966 65.7345C65.0035 69.6712 64.1872 71.868 64.1789 71.8898L64.1543 71.9538L64.0884 71.9332C63.8729 71.8656 63.6621 71.8111 63.4615 71.7707C62.8731 71.6456 62.3587 71.6132 62.1014 71.6049Z" fill="#390075"/>
<g opacity="0.3">
<path opacity="0.3" d="M66.7171 81.6479C65.6176 81.9629 64.3107 82.1846 62.7844 82.2124C62.7844 82.2124 65.8459 75.4248 61.9254 71.5297C61.9254 71.5297 62.6188 71.5176 63.476 71.6992C64.2638 72.405 65.49 73.8235 65.8922 76.0468C66.2695 78.132 69.1467 78.4848 69.9398 76.5177C70.4079 75.3573 70.6569 73.7397 70.4592 71.4863C70.7451 72.5285 70.9784 73.6675 71.1369 74.9105C71.5243 77.9294 69.6617 80.8048 66.7171 81.6479Z" fill="#390075"/>
</g>
<g opacity="0.3">
<path opacity="0.3" d="M67.5465 74.5729C67.5465 74.5729 66.062 72.0765 64.1103 71.8636C64.1103 71.8636 64.9432 69.6995 63.9168 65.718C63.9168 65.718 65.3769 63.9176 64.3977 61.9547C64.3977 61.9547 64.3995 61.9547 64.4012 61.9565C64.4793 62.0172 66.0029 63.2249 65.2739 65.831C65.2371 65.9625 65.2303 66.1002 65.2626 66.2329C65.3888 66.7499 65.6984 68.2999 65.6174 70.8054C65.6102 71.024 65.6987 71.2336 65.8563 71.3864C66.3351 71.8497 67.3434 72.9942 67.5465 74.5729Z" fill="#390075"/>
</g>
<g opacity="0.6">
<path opacity="0.6" d="M71.1376 74.9105C70.9791 73.6675 70.7454 72.5286 70.4599 71.4864C68.599 64.6726 64.5268 62.0379 64.4015 61.9565C64.3997 61.9547 64.398 61.9547 64.398 61.9547C64.6895 62.5389 64.764 63.1084 64.726 63.6209C66.114 64.9804 68.2194 67.6302 69.4144 72.0057C69.7003 73.0479 69.9336 74.1868 70.0921 75.4299C70.4053 77.8734 69.2444 80.2227 67.2289 81.4766C69.8745 80.4627 71.5015 77.7505 71.1376 74.9105Z" fill="white"/>
</g>
<path d="M62.7847 82.7659C62.598 82.7659 62.4234 82.673 62.3204 82.5179C62.2154 82.3598 62.1987 82.1595 62.2768 81.9867C62.3056 81.9227 65.132 75.4964 61.5324 71.9204C61.3744 71.7635 61.3261 71.5279 61.4098 71.3223C61.4935 71.1165 61.6929 70.9805 61.9162 70.9767C61.9559 70.9761 62.7538 70.9655 63.7141 71.1843C63.8782 70.3713 64.0718 68.5476 63.3775 65.8554C63.3338 65.6864 63.373 65.5068 63.4834 65.3708C63.5324 65.3095 64.704 63.8126 63.8999 62.2009C63.7892 61.9788 63.8405 61.7108 64.0257 61.5447C64.211 61.3787 64.4846 61.3551 64.6954 61.4872C64.9299 61.6341 70.4528 65.1942 71.6897 74.84C72.1168 78.1706 70.0906 81.2571 66.8715 82.1787C65.6049 82.5415 64.2335 82.7387 62.7954 82.7656C62.7918 82.7659 62.7882 82.7659 62.7847 82.7659ZM63.2035 72.2082C65.4069 75.4905 64.2475 79.8333 63.6129 81.6234C64.6479 81.5512 65.6372 81.3813 66.5631 81.1165C69.2078 80.3591 70.9369 77.7212 70.5854 74.9804C69.7674 68.6018 66.9341 65.0105 65.2959 63.4224C65.2831 64.5265 64.788 65.4233 64.5185 65.8309C65.4808 69.7797 64.666 71.9685 64.6298 72.0617C64.5244 72.335 64.2225 72.4795 63.942 72.3911C63.6891 72.3109 63.438 72.2519 63.2035 72.2082Z" fill="#390075"/>
<path d="M64.1617 71.3127C64.2163 71.3212 64.2371 71.3286 64.2715 71.3369C64.3039 71.3448 64.3294 71.3537 64.3585 71.3622C64.4164 71.3787 64.4677 71.3991 64.5211 71.4183C64.6259 71.4584 64.7269 71.4999 64.8233 71.5483C65.0186 71.6403 65.1997 71.7486 65.3731 71.8639C65.7192 72.0951 66.0249 72.3658 66.2998 72.6548C66.4336 72.8031 66.566 72.9497 66.6824 73.109C66.8067 73.2608 66.9112 73.4269 67.0193 73.5873C67.1267 73.7483 67.2152 73.9211 67.3122 74.0857C67.3995 74.2567 67.4808 74.4298 67.5643 74.5997C67.4411 74.4534 67.3217 74.3066 67.1983 74.1647C67.0653 74.0297 66.9424 73.8884 66.8041 73.7625C66.6652 73.6371 66.5322 73.5086 66.3835 73.3983C66.2422 73.28 66.0896 73.178 65.9394 73.0765C65.6334 72.8819 65.3146 72.7173 64.9878 72.6002C64.8248 72.5421 64.6601 72.4923 64.4971 72.4608C64.4161 72.4425 64.3347 72.4313 64.2567 72.4221C64.2178 72.4186 64.178 72.4133 64.1424 72.413C64.1249 72.4127 64.1044 72.4103 64.0899 72.4115C64.0774 72.4124 64.0516 72.4112 64.059 72.415L64.1617 71.3127Z" fill="#390075"/>
<path d="M60.5101 81.2153C62.0996 81.2153 63.3881 79.0497 63.3881 76.3783C63.3881 73.7068 62.0996 71.5412 60.5101 71.5412C58.9205 71.5412 57.632 73.7068 57.632 76.3783C57.632 79.0497 58.9205 81.2153 60.5101 81.2153Z" fill="#FFC5B3"/>
<path d="M60.5101 81.2879C58.8828 81.2879 57.559 79.0855 57.559 76.3783C57.559 73.671 58.8828 71.4687 60.5101 71.4687C62.1373 71.4687 63.4612 73.671 63.4612 76.3783C63.4612 79.0855 62.1373 81.2879 60.5101 81.2879ZM60.5101 71.6141C58.9636 71.6141 57.7053 73.7513 57.7053 76.3783C57.7053 79.0053 58.9636 81.1425 60.5101 81.1425C62.0566 81.1425 63.3148 79.0053 63.3148 76.3783C63.3148 73.7513 62.0566 71.6141 60.5101 71.6141Z" fill="#390075"/>
<g opacity="0.3">
<path opacity="0.3" d="M60.5101 81.2153C62.0996 81.2153 63.3881 79.0497 63.3881 76.3783C63.3881 73.7068 62.0996 71.5412 60.5101 71.5412C58.9205 71.5412 57.632 73.7068 57.632 76.3783C57.632 79.0497 58.9205 81.2153 60.5101 81.2153Z" fill="#421861"/>
<path opacity="0.3" d="M60.5101 81.2879C58.8828 81.2879 57.559 79.0855 57.559 76.3783C57.559 73.671 58.8828 71.4687 60.5101 71.4687C62.1373 71.4687 63.4612 73.671 63.4612 76.3783C63.4612 79.0855 62.1373 81.2879 60.5101 81.2879ZM60.5101 71.6141C58.9636 71.6141 57.7053 73.7513 57.7053 76.3783C57.7053 79.0053 58.9636 81.1425 60.5101 81.1425C62.0566 81.1425 63.3148 79.0053 63.3148 76.3783C63.3148 73.7513 62.0566 71.6141 60.5101 71.6141Z" fill="#390075"/>
</g>
<path d="M60.5101 81.768C58.5842 81.768 57.0754 79.4005 57.0754 76.3783C57.0754 73.3561 58.5842 70.9883 60.5101 70.9883C62.4359 70.9883 63.9444 73.3558 63.9444 76.3783C63.9444 79.4007 62.4359 81.768 60.5101 81.768ZM60.5101 72.0942C59.2518 72.0942 58.1885 74.0559 58.1885 76.3783C58.1885 78.7003 59.2518 80.6621 60.5101 80.6621C61.7683 80.6621 62.8313 78.7003 62.8313 76.3783C62.8313 74.0562 61.7683 72.0942 60.5101 72.0942Z" fill="#390075"/>
<path d="M59.8728 79.6001C60.0802 79.8148 60.1969 80.059 60.2527 80.3029C60.4341 81.087 59.9217 81.8694 59.1446 82.0944C58.803 82.1932 58.4931 82.2622 58.2158 82.3056C55.1894 82.7886 55.7278 80.3285 55.7278 80.3285C54.2294 79.378 55.3131 78.1108 55.3131 78.1108C53.2416 76.4646 55.2505 74.6589 55.2505 74.6589C54.4508 72.7651 55.1668 71.9774 55.7801 71.6571C56.0448 71.5203 56.3411 71.4495 56.6409 71.4338C56.8098 71.4253 56.97 71.42 57.1235 71.42C61.6362 71.3734 59.7772 74.3092 59.7772 74.3092C61.6902 75.7044 60.0648 77.2556 60.0648 77.2556C61.1815 78.9994 59.8728 79.6001 59.8728 79.6001Z" fill="#FFC5B3"/>
<path d="M57.4859 82.4413C56.8445 82.4413 56.3601 82.2726 56.0401 81.937C55.5153 81.3861 55.6111 80.5736 55.6468 80.3633C55.1962 80.0667 54.9367 79.7098 54.875 79.3026C54.7922 78.7543 55.0923 78.284 55.2113 78.1229C54.6266 77.6408 54.3211 77.0978 54.3033 76.5083C54.2745 75.564 54.9869 74.8123 55.1632 74.6413C54.3529 72.6789 55.1781 71.8898 55.7456 71.5934C56.0104 71.4566 56.3099 71.3787 56.6367 71.3619C56.8199 71.3525 56.979 71.348 57.1232 71.348C58.689 71.3348 59.6703 71.6695 60.0541 72.3513C60.4845 73.1163 60.0114 74.0491 59.8734 74.2909C60.4388 74.7185 60.7434 75.2039 60.7787 75.7345C60.8292 76.4959 60.3121 77.1028 60.1571 77.2662C60.5457 77.8902 60.673 78.4417 60.5359 78.9065C60.4172 79.3088 60.1322 79.5299 59.9888 79.619C60.1542 79.8116 60.267 80.0357 60.3243 80.287C60.5116 81.0974 60.0025 81.9222 59.1651 82.1646C58.8315 82.2611 58.5163 82.3327 58.2274 82.3778C57.9609 82.42 57.7136 82.4413 57.4859 82.4413ZM57.2304 71.4925C57.1951 71.4925 57.16 71.4928 57.1241 71.4931C56.9819 71.4931 56.8252 71.4976 56.6444 71.507C56.339 71.5229 56.0594 71.5955 55.8136 71.7223C55.1692 72.0588 54.5598 72.8367 55.3179 74.6315L55.3378 74.679L55.2995 74.7135C55.2906 74.7215 54.4191 75.5183 54.4496 76.5048C54.4672 77.0678 54.7729 77.5891 55.3585 78.0545L55.4173 78.1011L55.3686 78.1583C55.3642 78.1636 54.9287 78.6833 55.0199 79.2819C55.0771 79.6579 55.3286 79.9894 55.767 80.2675L55.81 80.2946L55.7993 80.3442C55.7973 80.3533 55.6058 81.2702 56.1469 81.8376C56.545 82.2549 57.2372 82.3882 58.2043 82.2339C58.4872 82.1897 58.7965 82.1192 59.1242 82.0246C59.887 81.8037 60.3516 81.0546 60.1815 80.3191C60.123 80.0631 60.0016 79.8381 59.8202 79.6503L59.7496 79.5771L59.8422 79.5341C59.8464 79.532 60.2575 79.3365 60.3964 78.8628C60.5237 78.4285 60.3913 77.9012 60.0031 77.2951L59.971 77.245L60.0141 77.2037C60.0206 77.1972 60.687 76.5499 60.6327 75.7427C60.5988 75.2411 60.2967 74.7787 59.7339 74.3685L59.6789 74.3284L59.7152 74.2711C59.7217 74.2605 60.3723 73.2136 59.9262 72.4215C59.5786 71.8048 58.6718 71.4925 57.2304 71.4925Z" fill="#390075"/>
<g opacity="0.3">
<path opacity="0.3" d="M59.8728 79.6001C60.0802 79.8148 60.1969 80.059 60.2527 80.3029C60.4341 81.087 59.9217 81.8694 59.1446 82.0944C58.803 82.1932 58.4931 82.2622 58.2158 82.3056C59.1446 81.5541 58.1879 80.1348 58.1879 80.1348C59.174 78.4104 57.8012 78.0106 57.8012 78.0106C58.735 75.9141 57.6896 74.8338 57.6896 74.8338C58.6792 72.9261 57.1615 71.5412 57.1615 71.5412C57.1615 71.5412 57.1458 71.4961 57.1232 71.42C61.6359 71.3734 59.7769 74.3092 59.7769 74.3092C61.69 75.7044 60.0645 77.2556 60.0645 77.2556C61.1815 78.9994 59.8728 79.6001 59.8728 79.6001Z" fill="#421861"/>
<path opacity="0.3" d="M57.9594 82.4194L58.1695 82.2492C59.0354 81.5488 58.1363 80.1887 58.1268 80.1752L58.1019 80.1377L58.1241 80.0988C58.4601 79.5113 58.553 79.0221 58.4002 78.6449C58.2268 78.2167 57.7848 78.0816 57.7804 78.0804L57.7005 78.0568L57.7341 77.9813C58.635 75.9589 57.6468 74.8952 57.6364 74.8845L57.6005 74.8471L57.6243 74.8011C58.5774 72.9641 57.1268 71.609 57.1119 71.5954L57.0986 71.5831L57.0926 71.566C57.0926 71.566 57.0763 71.5197 57.0532 71.4415L57.0258 71.3492L57.1226 71.3483C58.6866 71.3297 59.6703 71.6698 60.0541 72.3516C60.4845 73.1166 60.0114 74.0494 59.8734 74.2912C60.4388 74.7188 60.7434 75.2042 60.7787 75.7348C60.8292 76.4962 60.3121 77.1031 60.1571 77.2665C60.5457 77.8905 60.673 78.442 60.5359 78.9068C60.4172 79.309 60.1322 79.5302 59.9888 79.6193C60.1542 79.8118 60.267 80.036 60.3243 80.2872C60.5116 81.0976 60.0025 81.9225 59.1651 82.1649C58.8315 82.2613 58.5162 82.333 58.2274 82.3781L57.9594 82.4194ZM58.2728 80.1327C58.4082 80.3524 59.0381 81.4636 58.4337 82.1935C58.6516 82.1507 58.8828 82.0944 59.1242 82.0245C59.887 81.8036 60.3516 81.0546 60.1815 80.3191C60.123 80.0631 60.0016 79.8381 59.8202 79.6502L59.7496 79.5771L59.8422 79.534C59.8464 79.532 60.2575 79.3364 60.3964 78.8628C60.5237 78.4284 60.3913 77.9011 60.0031 77.2951L59.971 77.245L60.0141 77.2037C60.0206 77.1972 60.687 76.5499 60.6327 75.7427C60.5988 75.2411 60.2966 74.7787 59.7339 74.3685L59.6789 74.3283L59.7152 74.2711C59.7217 74.2605 60.3723 73.2136 59.9262 72.4215C59.5789 71.8051 58.6721 71.4928 57.2304 71.4928C57.2277 71.4928 57.225 71.4928 57.2226 71.4928C57.2235 71.4961 57.2247 71.499 57.2256 71.502C57.3782 71.6515 58.6851 73.0116 57.7774 74.8235C57.9567 75.0376 58.7053 76.0925 57.8994 77.9696C58.0502 78.0321 58.3803 78.2072 58.5358 78.5892C58.7032 79.0011 58.6151 79.5205 58.2728 80.1327Z" fill="#390075"/>
</g>
<path d="M57.4868 82.9965C56.7355 82.9965 56.1439 82.7989 55.718 82.4038C55.1668 81.8924 55.0374 81.161 55.0575 80.6199C54.5458 80.1899 54.3722 79.724 54.3211 79.3854C54.2525 78.9321 54.3665 78.5272 54.5045 78.2276C54.0177 77.7168 53.7619 77.1456 53.7429 76.524C53.7162 75.649 54.1884 74.9197 54.5179 74.5201C53.7447 72.3042 54.9192 71.3958 55.485 71.1006C55.8207 70.9255 56.1983 70.8258 56.6076 70.8049C58.6875 70.6972 59.9677 71.1033 60.5237 72.0446C60.9633 72.789 60.7677 73.6244 60.5611 74.1432C61.039 74.6035 61.2996 75.124 61.3379 75.6959C61.3842 76.3886 61.0853 76.9648 60.8309 77.3228C61.1471 77.9522 61.2287 78.5358 61.0734 79.0622C60.9927 79.3367 60.8585 79.5529 60.7167 79.7186C60.7831 79.8578 60.8342 80.0056 60.8704 80.1613C61.1251 81.2598 60.4445 82.3743 59.3209 82.6981C58.6314 82.8974 58.019 82.9965 57.4868 82.9965ZM57.2128 72.0485C57.041 72.0485 56.8608 72.0532 56.6732 72.0629C56.4515 72.0744 56.2446 72.1272 56.0745 72.216C55.439 72.5477 55.3582 73.2877 55.8344 74.4154C55.9385 74.6616 55.8744 74.9465 55.6753 75.1258C55.6705 75.1302 54.9845 75.7678 55.0103 76.4918C55.0243 76.8828 55.2594 77.2624 55.7097 77.6201C55.8436 77.7266 55.9282 77.882 55.9445 78.0516C55.9608 78.2208 55.9074 78.3898 55.7964 78.5196C55.7222 78.6101 55.5292 78.9198 55.5752 79.2043C55.6088 79.4125 55.775 79.6125 56.0689 79.7989C56.2924 79.9407 56.4034 80.2055 56.3473 80.463C56.347 80.4653 56.2199 81.1519 56.5868 81.4869C56.9564 81.8246 57.8021 81.8255 58.968 81.4893C59.4379 81.3539 59.7374 80.885 59.6356 80.4444C59.5985 80.284 59.5269 80.151 59.4168 80.0374C59.2711 79.887 59.1957 79.6803 59.2396 79.4759C59.2832 79.2716 59.4121 79.1079 59.6071 79.0295C59.6059 79.0295 59.8 78.9242 59.8615 78.6953C59.9336 78.4261 59.819 78.0454 59.5302 77.5944C59.3681 77.3414 59.4082 77.0102 59.6258 76.8023C59.6276 76.8006 60.1135 76.3166 60.0734 75.7737C60.0491 75.4458 59.8238 75.1243 59.4032 74.8179C59.1351 74.6227 59.0645 74.2547 59.2414 73.9751C59.3673 73.7719 59.6754 73.0915 59.4296 72.6796C59.1853 72.2717 58.3895 72.0485 57.2128 72.0485Z" fill="#390075"/>
<path d="M56.9775 75.4641C55.9154 75.4641 55.1555 75.2842 55.0988 75.2703L55.3998 74.0471C55.4215 74.0521 57.5711 74.5528 59.5311 73.7303L60.0242 74.8905C58.9541 75.3393 57.8611 75.4641 56.9775 75.4641Z" fill="#390075"/>
<path d="M56.3752 78.831C55.669 78.831 55.219 78.736 55.1763 78.7266L55.4482 77.4966C55.4687 77.501 57.5201 77.9165 59.7612 76.7036L60.3676 77.8094C58.8157 78.6493 57.3509 78.831 56.3752 78.831Z" fill="#390075"/>
<path d="M56.8246 81.0416C56.1401 81.0416 55.6592 80.957 55.6132 80.9484L55.8418 79.7098C55.8635 79.7139 58.0366 80.0876 59.5151 79.0814L60.2317 80.12C59.1179 80.8782 57.7751 81.0416 56.8246 81.0416Z" fill="#390075"/>
<path d="M58.5655 71.3811C58.5655 71.3811 59.5735 70.0458 62.7847 71.1584C62.7847 71.1584 67.4517 76.2406 62.598 82.3242C62.598 82.3242 61.291 83.5575 59.583 82.0552C59.583 82.0552 65.2489 75.1647 58.5655 71.3811Z" fill="white"/>
<g opacity="0.3">
<path opacity="0.3" d="M62.7847 71.1587C62.7443 71.1445 62.7057 71.1327 62.6656 71.1194C63.809 72.9945 65.0866 76.5911 62.0286 80.8823C62.0286 80.8823 61.2729 81.6774 60.0894 81.3527C59.7956 81.7965 59.583 82.0554 59.583 82.0554C61.2913 83.5577 62.598 82.3244 62.598 82.3244C67.4517 76.2405 62.7847 71.1587 62.7847 71.1587Z" fill="#390075"/>
</g>
<path d="M61.3103 83.3549C60.6879 83.3549 59.9633 83.1281 59.2141 82.4692C58.9906 82.2725 58.963 81.9352 59.1521 81.7054C59.1779 81.6739 61.7556 78.4839 61.1859 75.4585C60.9123 74.0049 59.9381 72.7946 58.29 71.8615C58.1511 71.7828 58.0532 71.6489 58.0205 71.4935C57.9882 71.338 58.0244 71.1764 58.1203 71.0493C58.2482 70.8795 59.4732 69.4253 62.9681 70.6365C63.0554 70.6668 63.1338 70.7182 63.1961 70.786C63.2474 70.842 64.4597 72.1794 65.0486 74.3142C65.5936 76.2904 65.6865 79.3438 63.0343 82.668C63.018 82.6884 63.0005 82.7075 62.9815 82.7255C62.6642 83.0246 62.0616 83.3549 61.3103 83.3549ZM60.3587 81.9464C61.3373 82.5536 62.0325 82.0732 62.1928 81.9417C66.325 76.7204 63.0753 72.3687 62.4617 71.6335C61.036 71.1629 60.1378 71.2298 59.6163 71.3879C61.0978 72.4224 61.9927 73.7221 62.281 75.2603C62.8105 78.0878 61.1177 80.872 60.3587 81.9464Z" fill="#390075"/>
<path d="M44.9997 65.4084C44.9997 65.4084 28.668 68.701 26.3993 66.2533C24.1306 63.8056 25.8104 61.607 25.8104 61.607C24.1796 59.3652 26.1449 57.4023 26.2598 57.2914C26.2616 57.2896 26.2634 57.2878 26.2634 57.2861C26.2652 57.2843 26.2652 57.2843 26.2652 57.2843C32.9629 62.81 44.9997 65.4084 44.9997 65.4084Z" fill="#FF48C2"/>
<path d="M30.7717 67.2347C28.6609 67.2347 26.979 66.9861 26.3453 66.3025C24.2387 64.0294 25.499 61.9362 25.7208 61.6076C24.1606 59.407 25.9689 57.4795 26.1904 57.2578V57.2563L26.2589 57.1882L26.3121 57.2289C32.9192 62.6796 44.8949 65.3119 45.0151 65.3379L45.3556 65.4113L45.0142 65.48C44.5322 65.5768 36.223 67.2347 30.7717 67.2347ZM26.2708 57.3834C25.9796 57.6845 24.3717 59.505 25.8695 61.5643L25.9012 61.6079L25.8686 61.651C25.8015 61.7389 24.2541 63.8315 26.4531 66.204C28.4893 68.4014 42.3077 65.8537 44.6491 65.4028C42.6592 64.9336 32.2903 62.3148 26.2708 57.3834Z" fill="#390075"/>
<g opacity="0.3">
<path opacity="0.3" d="M44.9997 65.4084C44.9997 65.4084 28.668 68.701 26.3993 66.2533C24.1307 63.8056 25.8104 61.607 25.8104 61.607C24.1796 59.3652 26.145 57.4023 26.2598 57.2914C26.1239 57.5769 22.268 65.9917 44.9997 65.4084Z" fill="#390075"/>
</g>
<path d="M30.7663 67.7074C26.9897 67.7074 26.2776 66.938 25.9897 66.6272C24.1692 64.6622 24.5605 62.653 25.147 61.6102C23.9264 59.5872 25.0642 57.6543 25.8811 56.8834C26.0856 56.6906 26.4029 56.68 26.6199 56.859C33.138 62.2369 44.9985 64.843 45.1175 64.8686C45.3749 64.9241 45.5577 65.1511 45.556 65.4127C45.5542 65.6743 45.3681 65.8987 45.1101 65.9509C45.0689 65.9592 40.9548 66.7843 36.6157 67.2981C34.1161 67.5939 32.2152 67.7074 30.7663 67.7074ZM26.3352 58.0522C25.8953 58.6511 25.2598 59.9051 26.2622 61.2826C26.4056 61.4799 26.4026 61.747 26.2545 61.9408C26.2002 62.0139 24.8983 63.8158 26.809 65.8781C27.1773 66.2756 28.8571 67.1025 36.4842 66.1995C38.6834 65.9391 40.8236 65.5979 42.3938 65.326C38.5887 64.2844 31.2721 61.9187 26.3352 58.0522Z" fill="#390075"/>
<path d="M26.2212 61.2325L26.3613 61.3661C26.4133 61.415 26.4673 61.466 26.5225 61.515C26.6324 61.615 26.7454 61.7149 26.8624 61.8129C27.096 62.0078 27.3379 62.2027 27.5929 62.3865C27.7205 62.4779 27.8482 62.5728 27.982 62.6589L28.1812 62.794C28.2498 62.8356 28.3175 62.8792 28.3857 62.9238C28.6594 63.1001 28.9456 63.262 29.2365 63.4428C28.896 63.4487 28.5534 63.4219 28.2168 63.3588C27.877 63.3039 27.5472 63.2039 27.2183 63.0916C26.8933 62.971 26.5745 62.8259 26.2708 62.6474C26.1176 62.5604 25.971 62.4608 25.8265 62.3555C25.7555 62.3006 25.6843 62.2464 25.6151 62.1856C25.5807 62.1552 25.5462 62.1255 25.5112 62.0924C25.4756 62.0579 25.4471 62.0299 25.4008 61.9804L26.2212 61.2325Z" fill="#390075"/>
<path d="M44.9997 65.4084C44.9997 65.4084 61.3314 68.701 63.6001 66.2533C65.8687 63.8056 64.189 61.607 64.189 61.607C65.8198 59.3652 63.8544 57.4023 63.7393 57.2914C63.7375 57.2896 63.7357 57.2878 63.7357 57.2861C63.7339 57.2843 63.7339 57.2843 63.7339 57.2843C57.0362 62.81 44.9997 65.4084 44.9997 65.4084Z" fill="#FF48C2"/>
<path d="M59.2274 67.2347C53.7761 67.2347 45.4669 65.5768 44.9852 65.4797L44.6438 65.411L44.9843 65.3376C45.1045 65.3116 57.0802 62.6793 63.6873 57.2286L63.7387 57.1861L63.8073 57.256C64.018 57.4668 65.8435 59.3994 64.2783 61.6076C64.4998 61.9361 65.7604 64.0297 63.6538 66.3025C63.0201 66.9858 61.3373 67.2347 59.2274 67.2347ZM45.3497 65.4028C47.6914 65.8534 61.5098 68.4011 63.5458 66.204C65.745 63.8315 64.1973 61.7388 64.1302 61.651L64.0976 61.6079L64.1293 61.5643C65.6283 59.5035 64.0168 57.6818 63.728 57.3834C57.7092 62.3148 47.3399 64.9336 45.3497 65.4028Z" fill="#390075"/>
<g opacity="0.3">
<path opacity="0.3" d="M44.9997 65.4084C44.9997 65.4084 61.3314 68.701 63.6001 66.2533C65.8687 63.8056 64.189 61.607 64.189 61.607C65.8198 59.3652 63.8544 57.4023 63.7393 57.2914C63.8752 57.5769 67.7311 65.9917 44.9997 65.4084Z" fill="#390075"/>
</g>
<path d="M59.2328 67.7074C57.7837 67.7074 55.8837 67.5942 53.3831 67.2981C49.0443 66.7843 44.93 65.9592 44.8887 65.9509C44.6307 65.8987 44.4446 65.6743 44.4428 65.4127C44.4411 65.1511 44.6239 64.9241 44.8813 64.8686C45.0003 64.843 56.865 62.2336 63.379 56.859C63.5959 56.68 63.9136 56.6906 64.1178 56.8834C64.9347 57.6543 66.0724 59.5872 64.8518 61.6102C65.4387 62.653 65.8296 64.6622 64.0091 66.6272C63.7215 66.938 63.0085 67.7074 59.2328 67.7074ZM47.6053 65.3263C49.1776 65.5985 51.3207 65.94 53.5212 66.2004C61.1432 67.1022 62.8221 66.2753 63.1905 65.8781C65.1012 63.8158 63.799 62.0139 63.7429 61.9381C63.5986 61.7447 63.5951 61.4775 63.7369 61.2826C64.7391 59.9051 64.1038 58.6511 63.6639 58.0522C58.727 61.9187 51.4107 64.2844 47.6053 65.3263Z" fill="#390075"/>
<path d="M60.7624 63.4428C61.0663 63.311 61.3641 63.1729 61.6475 63.0122C61.9337 62.8583 62.2032 62.6778 62.4638 62.4944C62.7221 62.3068 62.9661 62.1045 63.1922 61.8907C63.3062 61.7848 63.4131 61.6734 63.5152 61.5613C63.5657 61.505 63.6152 61.448 63.6609 61.3911C63.6838 61.3625 63.7072 61.3342 63.7274 61.3062C63.747 61.2802 63.7726 61.246 63.7779 61.2322L64.598 61.9801C64.547 62.0255 64.5146 62.0488 64.4746 62.0786C64.4363 62.1078 64.3986 62.1337 64.3609 62.1599C64.2852 62.2127 64.2098 62.2611 64.1338 62.3083C63.9815 62.4018 63.8289 62.4897 63.6728 62.5687C63.3617 62.7288 63.045 62.8665 62.7232 62.983C62.3997 63.0951 62.077 63.198 61.7476 63.2697C61.4207 63.3487 61.0898 63.4 60.7624 63.4428Z" fill="#390075"/>
<path d="M72.4736 41.4083C72.4736 41.4083 74.9129 50.7802 68.4165 60.5613L67.2749 55.7251C67.2749 55.7248 71.6211 50.4224 72.4736 41.4083Z" fill="#6747C2"/>
<g opacity="0.3">
<path opacity="0.3" d="M72.4736 41.4083C72.4736 41.4083 74.9129 50.7802 68.4165 60.5613L67.2749 55.7251C67.2749 55.7248 71.6211 50.4224 72.4736 41.4083Z" fill="#390075"/>
</g>
<path d="M68.4165 61.1142C68.3841 61.1142 68.3512 61.1113 68.3185 61.1057C68.0998 61.0667 67.9249 60.9025 67.8742 60.6875L66.7325 55.851C66.6934 55.6841 66.734 55.5086 66.843 55.3756C66.8851 55.324 71.0939 50.0803 71.9194 41.3564C71.9446 41.0889 72.1598 40.8784 72.4291 40.8568C72.7013 40.8362 72.9447 41.0096 73.0123 41.2697C73.0382 41.3688 73.6416 43.7375 73.4368 47.3477C73.2483 50.6689 72.305 55.7101 68.8807 60.8656C68.7768 61.0225 68.6014 61.1142 68.4165 61.1142ZM67.8771 55.8549L68.6534 59.1434C71.738 53.9766 72.3762 48.9956 72.3522 45.6603C71.0411 51.3785 68.5584 54.9525 67.8771 55.8549Z" fill="#390075"/>
<path d="M18.5805 31.7023C18.5805 31.7023 17.8096 33.0429 17.644 34.8365L14.3376 35.8145C14.3376 35.8145 14.2037 35.2084 14.3162 34.4626C14.4798 33.3732 15.172 31.9845 17.5754 31.7374C17.8826 31.7061 18.2169 31.6937 18.5805 31.7023Z" fill="#FF48C2"/>
<path d="M14.283 35.9068L14.266 35.8304C14.2604 35.8051 14.1304 35.2026 14.2438 34.452C14.4136 33.3193 15.1283 31.9161 17.5677 31.6652C17.8814 31.633 18.2231 31.6212 18.5817 31.6298L18.7043 31.6327L18.6434 31.7386C18.6357 31.7519 17.8785 33.0875 17.7161 34.8434L17.7117 34.8923L14.283 35.9068ZM18.3596 31.7722C18.0869 31.7722 17.8265 31.7846 17.5831 31.8097C15.2373 32.0509 14.5513 33.3912 14.3889 34.4733C14.3025 35.0445 14.3646 35.5373 14.3952 35.7216L17.576 34.7805C17.7223 33.3016 18.2792 32.1231 18.46 31.7728C18.4261 31.7725 18.3929 31.7722 18.3596 31.7722Z" fill="#390075"/>
<g opacity="0.3">
<path opacity="0.3" d="M18.5805 31.7023C18.5805 31.7023 17.8096 33.043 17.644 34.8366L14.3376 35.8145C14.3376 35.8145 14.2037 35.2085 14.3162 34.4627C14.7496 34.3155 15.2886 34.1563 15.8793 34.0348C16.3525 33.9374 16.7345 33.5927 16.8847 33.1365C17.0025 32.7779 17.2103 32.3034 17.5757 31.7377C17.8826 31.7062 18.2169 31.6938 18.5805 31.7023Z" fill="#390075"/>
</g>
<path d="M14.3376 36.3678C14.2393 36.3678 14.1417 36.3418 14.0553 36.2914C13.922 36.2136 13.8273 36.0841 13.7941 35.9343C13.7766 35.8555 13.3779 33.9888 14.5403 32.5853C15.3655 31.5885 16.7268 31.1046 18.5944 31.15C18.7903 31.1547 18.9693 31.2615 19.0658 31.4311C19.1623 31.6006 19.1617 31.8082 19.0646 31.9772C19.0581 31.989 18.3507 33.245 18.1991 34.8871C18.1783 35.1121 18.0216 35.302 17.8037 35.3663L14.4967 36.3448C14.4444 36.3601 14.3907 36.3678 14.3376 36.3678ZM17.7007 32.2819C16.6505 32.3771 15.8805 32.7121 15.405 33.2819C14.9232 33.8593 14.8259 34.5877 14.8279 35.0929L17.1334 34.4108C17.2531 33.5497 17.4911 32.8095 17.7007 32.2819Z" fill="#390075"/>
<path d="M15.014 50.5197C14.2064 50.6202 13.4729 50.5586 12.957 50.4763C12.4524 50.3961 12.0143 50.0888 11.7709 49.6423C11.4099 48.9829 11.1392 48.2094 10.9362 47.3842C10.2552 44.6024 10.3621 41.2328 10.4648 39.6624C10.5081 39.0162 10.9246 38.4471 11.5402 38.2368C11.7872 38.1525 12.0353 38.0938 12.2609 38.051C12.8127 37.9481 13.2396 37.9508 13.2396 37.9508C13.0547 46.4225 15.014 50.5197 15.014 50.5197Z" fill="#FF48C2"/>
<path d="M14.1577 50.6444C13.6762 50.6444 13.2559 50.5978 12.9457 50.5483C12.4141 50.464 11.9626 50.1463 11.7068 49.6771C11.3669 49.0564 11.084 48.2908 10.8652 47.4017C10.1923 44.6534 10.2799 41.3702 10.3921 39.658C10.4381 38.9709 10.8798 38.3861 11.5168 38.1684C11.7376 38.0929 11.9766 38.0313 12.2476 37.98C12.7994 37.8771 13.2206 37.8785 13.2402 37.8785L13.3144 37.8791L13.3129 37.9529C13.1304 46.3055 15.061 50.4477 15.0805 50.4887L15.1239 50.5796L15.0236 50.5919C14.7211 50.6297 14.4296 50.6444 14.1577 50.6444ZM13.1648 38.0254C13.0205 38.0295 12.6801 38.0475 12.2743 38.1233C12.0104 38.1732 11.778 38.233 11.5637 38.3065C10.9825 38.5049 10.58 39.0396 10.5375 39.668C10.4262 41.372 10.3387 44.6384 11.0071 47.3677C11.2226 48.2448 11.5013 48.9986 11.835 49.6081C12.0689 50.0372 12.4821 50.3277 12.9683 50.405C13.4257 50.4778 14.1262 50.5445 14.9069 50.4592C14.627 49.8063 13.0087 45.6862 13.1648 38.0254Z" fill="#390075"/>
<g opacity="0.3">
<path opacity="0.3" d="M15.0141 50.5197C14.2064 50.6203 13.4729 50.5587 12.957 50.4764C12.4524 50.3962 12.0143 50.0889 11.7709 49.6424C11.4099 48.983 11.1392 48.2094 10.9362 47.3843C10.9412 47.3861 10.946 47.3878 10.951 47.3893C11.7477 47.6621 12.5536 46.9994 12.4474 46.169C12.198 44.2188 11.8691 40.73 12.2609 38.0514C12.8127 37.9485 13.2396 37.9511 13.2396 37.9511C13.0547 46.4226 15.0141 50.5197 15.0141 50.5197Z" fill="#390075"/>
</g>
<g opacity="0.6">
<path opacity="0.6" d="M12.6851 50.2174C12.3242 49.558 12.0534 48.7845 11.8504 47.9593C11.1695 45.1775 11.2763 41.8079 11.379 40.2375C11.4224 39.5914 11.8388 39.0222 12.4545 38.812C12.7014 38.7276 12.9496 38.6689 13.1752 38.6262C13.1942 38.6226 13.2114 38.6203 13.2301 38.617C13.2322 38.3976 13.2348 38.1767 13.2396 37.9511C13.2396 37.9511 12.8127 37.9485 12.2609 38.0514C12.0353 38.0939 11.7872 38.1525 11.5402 38.2372C10.9246 38.4474 10.5081 39.0166 10.4648 39.6628C10.3621 41.2331 10.2552 44.6027 10.9362 47.3846C11.1389 48.2097 11.4099 48.9833 11.7709 49.6427C11.9959 50.0552 12.3877 50.3463 12.8439 50.4519C12.7854 50.3785 12.7308 50.3012 12.6851 50.2174Z" fill="white"/>
</g>
<path d="M14.1559 51.1248C13.6451 51.1248 13.1986 51.0756 12.8685 51.0231C12.1888 50.9155 11.6103 50.5085 11.2811 49.9069C9.63338 46.895 9.77289 41.7144 9.90943 39.6268C9.96702 38.7462 10.536 37.9953 11.3595 37.714C12.29 37.3958 13.2001 37.3979 13.2429 37.3982C13.3919 37.399 13.5343 37.4595 13.6382 37.5657C13.7421 37.6718 13.7988 37.8152 13.7956 37.9632C13.6148 46.2076 15.4964 50.2425 15.5157 50.2823C15.5923 50.4424 15.5869 50.6294 15.5011 50.7851C15.4154 50.9408 15.2598 51.0461 15.0826 51.0682C14.7597 51.1089 14.4474 51.1248 14.1559 51.1248ZM12.6732 38.5462C12.4007 38.581 12.0597 38.6441 11.7222 38.7597C11.3244 38.8957 11.049 39.2643 11.0208 39.6984C10.8905 41.6902 10.7504 46.6205 12.2595 49.3787C12.4224 49.6766 12.7083 49.8777 13.0443 49.9311C13.3426 49.9783 13.7507 50.0213 14.2141 50.0187C13.6765 48.5235 12.6082 44.754 12.6732 38.5462Z" fill="#390075"/>
<path d="M17.1928 52.4502C16.3299 52.2877 15.5994 51.7303 15.2135 50.9485C14.7852 50.083 14.4486 49.1051 14.182 48.0773V48.0755C13.2292 44.4004 13.1882 40.0797 13.2396 37.9514C13.2642 36.9269 13.8528 35.9876 14.784 35.545C15.3097 35.2958 15.8481 35.1315 16.3127 35.0262C17.0758 34.8543 17.6443 34.8366 17.6443 34.8366C17.6443 34.8366 16.2438 46.5406 20.455 52.7822C21.0819 53.7115 18.0871 52.6171 17.1928 52.4502Z" fill="#7F6596"/>
<path d="M20.2157 53.2234C19.7936 53.2234 19.0625 53.0302 18.1524 52.7743C17.7491 52.6607 17.4003 52.5628 17.1794 52.5215C16.302 52.3564 15.5427 51.7804 15.1479 50.9804C14.746 50.1685 14.3972 49.1976 14.1114 48.0953L14.109 48.0844C13.1648 44.4355 13.1131 40.1691 13.1666 37.9493C13.1924 36.8782 13.8 35.9319 14.7525 35.4792C15.2197 35.2574 15.7392 35.0814 16.2967 34.9552C17.0577 34.7838 17.6363 34.7638 17.6419 34.7638L17.7271 34.7611L17.717 34.8452C17.703 34.9619 16.3685 46.5942 20.5158 52.7415C20.555 52.7996 20.674 52.976 20.577 53.1093C20.5185 53.1889 20.395 53.2234 20.2157 53.2234ZM17.2064 52.3788C17.4341 52.4213 17.7856 52.5201 18.1922 52.6345C18.9836 52.8568 20.3074 53.2296 20.4579 53.0238C20.4817 52.9913 20.4579 52.9179 20.3938 52.8226C16.4053 46.9112 17.4469 35.9938 17.5615 34.9139C17.3768 34.926 16.9069 34.967 16.3284 35.0973C15.7817 35.2209 15.2726 35.3937 14.8152 35.6107C13.9125 36.0395 13.3369 36.9372 13.3123 37.9532C13.2592 40.1673 13.3105 44.424 14.2524 48.0575L14.2547 48.0685C14.5379 49.1575 14.8822 50.1157 15.2785 50.9167C15.6537 51.6754 16.3744 52.2222 17.2064 52.3788Z" fill="#390075"/>
<g opacity="0.3">
<path opacity="0.3" d="M17.1928 52.4502C16.3299 52.2877 15.5994 51.7303 15.2135 50.9485C14.7852 50.083 14.4486 49.1051 14.182 48.0773C14.182 48.0773 14.1963 48.09 14.2239 48.1124C15.1898 48.8904 16.6039 48.0407 16.3756 46.8263C15.9221 44.4134 15.3946 39.9703 16.3124 35.0262C17.0755 34.8543 17.644 34.8366 17.644 34.8366C17.644 34.8366 16.2435 46.5406 20.4547 52.7822C21.0819 53.7115 18.0871 52.6171 17.1928 52.4502Z" fill="#390075"/>
</g>
<g opacity="0.6">
<path opacity="0.6" d="M16.1533 51.8138C15.725 50.9482 15.3884 49.9703 15.1218 48.9426V48.9408C14.169 45.2657 14.128 40.945 14.1794 38.8167C14.204 37.7922 14.7926 36.8529 15.7238 36.4102C16.2495 36.161 16.7879 35.9968 17.2525 35.8915C17.3566 35.8682 17.4567 35.8478 17.5526 35.8296C17.6009 35.1993 17.6443 34.8366 17.6443 34.8366C17.6443 34.8366 17.0758 34.8546 16.3127 35.0262C15.8481 35.1315 15.3097 35.2955 14.784 35.545C13.8528 35.9876 13.2642 36.9269 13.2396 37.9514C13.1885 40.0797 13.2295 44.4007 14.182 48.0755V48.0773C14.4486 49.1051 14.7852 50.083 15.2135 50.9485C15.464 51.4563 15.8618 51.8668 16.345 52.1388C16.275 52.0349 16.2094 51.9276 16.1533 51.8138Z" fill="white"/>
</g>
<path d="M20.2151 53.7029C19.715 53.7029 19.0014 53.5124 18.0159 53.2352C17.6416 53.1299 17.2881 53.0305 17.0889 52.993C16.0637 52.8005 15.1758 52.1269 14.7143 51.1918C12.6919 47.0979 12.6204 40.5592 12.6833 37.9378C12.7136 36.6859 13.4263 35.5777 14.5439 35.0454C16.0212 34.3417 17.5624 34.2854 17.6274 34.2833C17.7897 34.2768 17.9456 34.3435 18.0551 34.4623C18.1646 34.5809 18.2166 34.7413 18.1976 34.9012C18.1839 35.0162 16.8719 46.4762 20.9174 52.4734C21.23 52.9367 21.057 53.2694 20.9679 53.3912C20.8073 53.6106 20.5627 53.7029 20.2151 53.7029ZM17.0227 35.4565C16.5059 35.534 15.7478 35.6983 15.0247 36.0427C14.2868 36.3943 13.816 37.1307 13.7959 37.9643C13.7347 40.5044 13.7994 46.8301 15.7131 50.7046C16.0215 51.3286 16.6131 51.778 17.2955 51.9063C17.5434 51.9529 17.9028 52.0541 18.319 52.1711C18.6467 52.2635 19.1878 52.4156 19.6262 52.5121C16.2955 46.9209 16.7971 38.0053 17.0227 35.4565Z" fill="#390075"/>
<path d="M71.4186 31.7023C71.4186 31.7023 72.1895 33.043 72.3551 34.8366L75.6615 35.8145C75.6615 35.8145 75.7954 35.2085 75.6829 34.4627C75.5194 33.3733 74.8271 31.9846 72.4237 31.7374C72.1165 31.7062 71.7823 31.6938 71.4186 31.7023Z" fill="#FF48C2"/>
<g opacity="0.3">
<path opacity="0.3" d="M71.4186 31.7023C71.4186 31.7023 72.1895 33.043 72.3551 34.8366L75.6615 35.8145C75.6615 35.8145 75.7954 35.2085 75.6829 34.4627C75.2495 34.3155 74.7105 34.1563 74.1198 34.0348C73.6467 33.9374 73.2646 33.5927 73.1144 33.1365C72.9966 32.7779 72.7888 32.3034 72.4234 31.7377C72.1165 31.7062 71.7823 31.6938 71.4186 31.7023Z" fill="#390075"/>
</g>
<path d="M75.6616 36.3678C75.6081 36.3678 75.5547 36.3601 75.5028 36.3448L72.1957 35.3663C71.9779 35.3017 71.8211 35.1118 71.8004 34.8871C71.6484 33.2453 70.941 31.989 70.9342 31.9766C70.8377 31.8077 70.8374 31.6 70.9342 31.4308C71.0307 31.2618 71.2094 31.1547 71.4047 31.1503C73.2676 31.1061 74.6336 31.5888 75.4591 32.5856C76.6215 33.9894 76.2229 35.8558 76.2054 35.9346C76.1721 36.0844 76.0774 36.2138 75.9441 36.2917C75.8575 36.3418 75.7601 36.3678 75.6616 36.3678ZM72.8657 34.4105L75.1712 35.0926C75.1733 34.5874 75.0759 33.859 74.5942 33.2816C74.1186 32.7118 73.3486 32.3771 72.2984 32.2816C72.508 32.8095 72.7461 33.5497 72.8657 34.4105Z" fill="#390075"/>
<path d="M74.9851 50.5197C75.7927 50.6203 76.5262 50.5586 77.0421 50.4764C77.5467 50.3962 77.9848 50.0889 78.2282 49.6424C78.5892 48.983 78.8599 48.2094 79.0629 47.3843C79.7439 44.6024 79.637 41.2328 79.5343 39.6624C79.491 39.0163 79.0745 38.4471 78.4589 38.2369C78.2119 38.1525 77.9638 38.0938 77.7382 38.0511C77.1864 37.9482 76.7595 37.9508 76.7595 37.9508C76.9444 46.4226 74.9851 50.5197 74.9851 50.5197Z" fill="#FF48C2"/>
<g opacity="0.3">
<path opacity="0.3" d="M74.9851 50.5197C75.7927 50.6203 76.5262 50.5587 77.0421 50.4764C77.5467 50.3962 77.9848 50.0889 78.2283 49.6424C78.5892 48.983 78.8599 48.2094 79.0629 47.3843C79.0579 47.3861 79.0532 47.3878 79.0481 47.3893C78.2514 47.6621 77.4455 46.9994 77.5518 46.169C77.8011 44.2188 78.13 40.73 77.7382 38.0514C77.1864 37.9485 76.7595 37.9511 76.7595 37.9511C76.9445 46.4226 74.9851 50.5197 74.9851 50.5197Z" fill="#390075"/>
</g>
<g opacity="0.6">
<path opacity="0.6" d="M77.3143 50.2174C77.6753 49.558 77.946 48.7845 78.149 47.9593C78.8299 45.1775 78.7231 41.8079 78.6204 40.2375C78.577 39.5914 78.1606 39.0222 77.5449 38.812C77.298 38.7276 77.0498 38.6689 76.8242 38.6262C76.8052 38.6226 76.788 38.6203 76.7693 38.617C76.7672 38.3976 76.7646 38.1767 76.7598 37.9511C76.7598 37.9511 77.1867 37.9485 77.7385 38.0514C77.9641 38.0939 78.2122 38.1525 78.4592 38.2372C79.0748 38.4474 79.4913 39.0166 79.5346 39.6628C79.6373 41.2331 79.7442 44.6027 79.0632 47.3846C78.8605 48.2097 78.5895 48.9833 78.2285 49.6427C78.0035 50.0552 77.6117 50.3463 77.1555 50.4519C77.214 50.3785 77.2683 50.3012 77.3143 50.2174Z" fill="white"/>
</g>
<path d="M75.8429 51.1249C75.5517 51.1249 75.2395 51.109 74.9159 51.0683C74.7387 51.0462 74.5832 50.9409 74.4974 50.7852C74.4116 50.6295 74.4062 50.4425 74.4831 50.2824C74.5018 50.2431 76.3831 46.1725 76.2033 37.9632C76.2 37.8152 76.2567 37.6719 76.3606 37.5657C76.4645 37.4595 76.607 37.3991 76.756 37.3982C76.7952 37.3982 77.7088 37.3955 78.6394 37.714C79.4625 37.9957 80.0318 38.7465 80.0894 39.6271C80.2259 41.7144 80.3657 46.8951 78.7177 49.9072C78.3885 50.5088 77.81 50.9158 77.1303 51.0235C76.8002 51.0757 76.3538 51.1249 75.8429 51.1249ZM75.785 50.019C76.2522 50.0217 76.6568 49.9786 76.9551 49.9314C77.2909 49.878 77.577 49.6769 77.74 49.3794C79.2491 46.6208 79.109 41.6906 78.9786 39.6991C78.9501 39.2647 78.675 38.8963 78.2772 38.7601C77.9397 38.6448 77.5987 38.5814 77.3262 38.5466C77.3909 44.754 76.3229 48.5235 75.785 50.019Z" fill="#390075"/>
<path d="M72.8063 52.4502C73.6692 52.2877 74.3997 51.7303 74.7856 50.9485C75.2139 50.083 75.5505 49.1051 75.8171 48.0773V48.0755C76.7699 44.4004 76.8109 40.0797 76.7595 37.9514C76.7349 36.9269 76.1463 35.9876 75.2151 35.545C74.6894 35.2958 74.151 35.1315 73.6864 35.0262C72.9233 34.8543 72.3548 34.8366 72.3548 34.8366C72.3548 34.8366 73.7553 46.5406 69.5441 52.7822C68.9172 53.7115 71.9123 52.6171 72.8063 52.4502Z" fill="#7F6596"/>
<path d="M69.7834 53.2234C69.6041 53.2234 69.4806 53.1886 69.4227 53.1093C69.3254 52.9763 69.4447 52.7996 69.4839 52.7415C73.6312 46.5942 72.2967 34.9619 72.2827 34.8452L72.2726 34.7611L72.3578 34.7638C72.3637 34.7641 72.942 34.7838 73.7031 34.9552C74.2602 35.0811 74.7797 35.2574 75.2472 35.4792C76.1997 35.9319 76.8073 36.8785 76.8332 37.9493C76.8866 40.1691 76.8349 44.4358 75.8907 48.0844L75.8883 48.0953C75.6025 49.1976 75.2534 50.1685 74.8518 50.9804C74.457 51.7801 73.6977 52.3564 72.8203 52.5212C72.5991 52.5625 72.2507 52.6604 71.8473 52.774C70.9366 53.0302 70.2055 53.2234 69.7834 53.2234ZM72.4374 34.9139C72.5522 35.9938 73.5935 46.9112 69.6053 52.8226C69.5409 52.9182 69.5174 52.9916 69.5409 53.0241C69.6914 53.2296 71.0155 52.8571 71.8066 52.6348C72.2136 52.5204 72.565 52.4216 72.7924 52.3791C73.6247 52.2225 74.3451 51.6757 74.7197 50.9169C75.116 50.116 75.4606 49.1575 75.7435 48.0685L75.7459 48.0578C76.688 44.4243 76.7394 40.1676 76.6859 37.9535C76.6616 36.9375 76.0857 36.0398 75.1831 35.611C74.7256 35.394 74.2166 35.2215 73.6698 35.0976C73.0919 34.967 72.622 34.926 72.4374 34.9139Z" fill="#390075"/>
<g opacity="0.3">
<path opacity="0.3" d="M72.8063 52.4502C73.6692 52.2877 74.3997 51.7303 74.7856 50.9485C75.2139 50.083 75.5505 49.1051 75.8171 48.0773C75.8171 48.0773 75.8029 48.09 75.7752 48.1124C74.8094 48.8904 73.3952 48.0407 73.6235 46.8263C74.0771 44.4134 74.6045 39.9703 73.6867 35.0262C72.9236 34.8543 72.3551 34.8366 72.3551 34.8366C72.3551 34.8366 73.7556 46.5406 69.5444 52.7822C68.9172 53.7115 71.9123 52.6171 72.8063 52.4502Z" fill="#390075"/>
</g>
<g opacity="0.6">
<path opacity="0.6" d="M73.8458 51.8138C74.2742 50.9482 74.6108 49.9703 74.8773 48.9426V48.9408C75.8302 45.2657 75.8711 40.945 75.8198 38.8167C75.7951 37.7922 75.2065 36.8529 74.2753 36.4102C73.7497 36.161 73.2112 35.9968 72.7467 35.8915C72.6425 35.8682 72.5424 35.8478 72.4466 35.8296C72.3982 35.1993 72.3548 34.8366 72.3548 34.8366C72.3548 34.8366 72.9233 34.8546 73.6864 35.0262C74.151 35.1315 74.6894 35.2955 75.2151 35.545C76.1463 35.9876 76.7349 36.9269 76.7595 37.9514C76.8106 40.0797 76.7696 44.4007 75.8171 48.0755V48.0773C75.5505 49.1051 75.2139 50.083 74.7856 50.9485C74.5351 51.4563 74.1373 51.8668 73.6541 52.1388C73.7244 52.0349 73.7897 51.9276 73.8458 51.8138Z" fill="white"/>
</g>
<path d="M69.7843 53.7029C69.4364 53.7029 69.1918 53.6106 69.0315 53.3915C68.9428 53.27 68.7697 52.9371 69.082 52.4738C73.1275 46.4766 71.8155 35.0165 71.8018 34.9015C71.7828 34.7417 71.8348 34.5812 71.9443 34.4627C72.0541 34.3438 72.2109 34.2775 72.372 34.2837C72.437 34.2857 73.9782 34.3421 75.4555 35.0457C76.5731 35.578 77.2858 36.6863 77.3161 37.9381C77.379 40.5593 77.3075 47.0982 75.2851 51.1921C74.8233 52.1273 73.9358 52.8005 72.9105 52.9931C72.711 53.0306 72.3575 53.1299 71.9832 53.2352C70.998 53.5124 70.2841 53.7029 69.7843 53.7029ZM72.9764 35.4565C73.202 38.0054 73.7036 46.921 70.3729 52.5121C70.8113 52.4157 71.3524 52.2635 71.6801 52.1712C72.0963 52.0541 72.4558 51.953 72.7039 51.9064C73.3863 51.7781 73.9779 51.3289 74.2863 50.7049C76.2 46.8304 76.2647 40.5044 76.2035 37.9647C76.1837 37.131 75.7126 36.3946 74.9747 36.0431C74.2513 35.6983 73.4935 35.5341 72.9764 35.4565Z" fill="#390075"/>
<path d="M67.9665 44.2072C67.6824 49.0664 66.4802 53.0117 64.1697 56.0064C62.6294 58.0024 60.5961 59.576 58.0173 60.7184L58.0155 60.7202C54.6491 62.2107 50.3522 62.9689 44.9997 62.9689C38.999 62.9689 34.3221 62.0184 30.799 60.1437C29.3127 59.3542 28.0301 58.4005 26.9414 57.284C23.8988 54.1683 22.3586 49.7919 22.0326 44.2072C21.3185 31.8837 32.1439 23.2332 44.9997 23.2332C57.8555 23.2332 68.6806 31.8837 67.9665 44.2072Z" fill="#FFC5B3"/>
<path d="M44.9997 63.0417C39.0043 63.0417 34.3479 62.1149 30.7645 60.208C29.2869 59.4232 27.9829 58.4565 26.8885 57.3347C23.9092 54.283 22.2968 49.9904 21.9599 44.2114C21.6548 38.9485 23.4111 34.1489 27.0384 30.3313C31.3689 25.7742 37.9155 23.1604 44.9997 23.1604C52.0839 23.1604 58.6305 25.7742 62.961 30.3313C66.5886 34.1489 68.3446 38.9485 68.0395 44.2114C67.7459 49.2336 66.4992 53.1064 64.2279 56.0507C62.6775 58.0599 60.6021 59.6509 58.0594 60.7795L58.0455 60.7869C54.6179 62.3042 50.3507 63.0417 44.9997 63.0417ZM44.9997 23.3061C37.9556 23.3061 31.4478 25.903 27.145 30.4313C23.5459 34.2191 21.8032 38.9812 22.106 44.2031C22.4411 49.9456 24.0398 54.2078 26.9939 57.2336C28.0773 58.3445 29.3691 59.302 30.8337 60.0797C34.3954 61.9751 39.0292 62.8964 45 62.8964C50.324 62.8964 54.5681 62.1644 57.9739 60.6595L57.9879 60.6524C60.5136 59.5335 62.5742 57.9555 64.1121 55.9625C66.365 53.0421 67.6022 49.1956 67.894 44.2034C68.1968 38.9815 66.4541 34.2194 62.855 30.4316C58.5516 25.903 52.0438 23.3061 44.9997 23.3061Z" fill="#390075"/>
<path d="M32.7652 52.4405C34.1195 52.4405 35.2173 51.9962 35.2173 51.4481C35.2173 50.9 34.1195 50.4557 32.7652 50.4557C31.4109 50.4557 30.3131 50.9 30.3131 51.4481C30.3131 51.9962 31.4109 52.4405 32.7652 52.4405Z" fill="#FF69B8"/>
<path d="M57.3802 52.4405C58.7345 52.4405 59.8324 51.9962 59.8324 51.4481C59.8324 50.9 58.7345 50.4557 57.3802 50.4557C56.026 50.4557 54.9281 50.9 54.9281 51.4481C54.9281 51.9962 56.026 52.4405 57.3802 52.4405Z" fill="#FF69B8"/>
<g opacity="0.3">
<path opacity="0.3" d="M67.9659 42.3031C67.4945 50.4003 64.4668 55.9575 58.0179 58.8146L58.0161 58.8164C54.6488 60.3074 50.3519 61.065 44.9997 61.065C38.9981 61.065 34.3227 60.1139 30.7996 58.2392C25.1595 55.2439 22.4749 49.8875 22.0335 42.3028C22.0297 42.2382 22.0282 42.1742 22.0252 42.1099C21.9914 42.7962 21.9923 43.4951 22.0335 44.207C22.4752 51.792 25.1598 57.1484 30.7996 60.1434C34.3227 62.0179 38.9981 62.9692 44.9997 62.9692C50.3522 62.9692 54.6488 62.2116 58.0161 60.7206L58.0179 60.7188C64.4668 57.8617 67.4945 52.3045 67.9659 44.2073C68.0071 43.4954 68.0083 42.7965 67.9742 42.1102C67.9712 42.1745 67.9694 42.2385 67.9659 42.3031Z" fill="#390075"/>
</g>
<g opacity="0.3">
<path opacity="0.3" d="M67.9665 44.2072C67.6824 49.0664 66.4802 53.0117 64.1697 56.0064C66.0516 43.4366 60.86 36.8125 57.2339 34.1742C52.9509 31.0547 51.7707 28.3882 51.7707 28.3882C43.1454 36.734 33.1959 35.4111 29.7598 41.3522C25.6059 48.5382 26.9414 57.284 26.9414 57.284C23.8988 54.1683 22.3586 49.7919 22.0326 44.2072C21.3185 31.8837 32.1439 23.2332 44.9997 23.2332C57.8555 23.2332 68.6806 31.8837 67.9665 44.2072Z" fill="#390075"/>
</g>
<path d="M44.9997 63.5216C29.7167 63.5216 22.2428 57.3943 21.4785 44.2391C21.165 38.8418 22.9662 33.9192 26.6867 30.0034C31.108 25.3498 37.7828 22.6809 44.9997 22.6809C52.2166 22.6809 58.8915 25.3498 63.3128 30.0031C67.0333 33.9189 68.8344 38.8418 68.521 44.2388C67.7566 57.3943 60.2827 63.5216 44.9997 63.5216ZM44.9997 23.7868C38.088 23.7868 31.7082 26.3292 27.4961 30.7622C23.9911 34.4512 22.2945 39.0895 22.5898 44.1751C22.9499 50.3755 24.8154 54.8286 28.2934 57.7889C31.9507 60.9019 37.4154 62.4154 44.9997 62.4154C52.5841 62.4154 58.0485 60.9019 61.706 57.7889C65.184 54.8286 67.0496 50.3755 67.4096 44.1751C67.705 39.0892 66.0083 34.4512 62.5033 30.7622C58.291 26.3292 51.9115 23.7868 44.9997 23.7868Z" fill="#390075"/>
<path d="M34.6878 49.8948C36.394 49.8948 37.7772 48.2104 37.7772 46.1327C37.7772 44.0549 36.394 42.3705 34.6878 42.3705C32.9815 42.3705 31.5983 44.0549 31.5983 46.1327C31.5983 48.2104 32.9815 49.8948 34.6878 49.8948Z" fill="#390075"/>
<path d="M34.6878 49.9674C32.9439 49.9674 31.525 48.2469 31.525 46.1324C31.525 44.0179 32.9439 42.2974 34.6878 42.2974C36.4317 42.2974 37.8505 44.0176 37.8505 46.1324C37.8505 48.2472 36.4317 49.9674 34.6878 49.9674ZM34.6878 42.4431C33.0246 42.4431 31.6714 44.0981 31.6714 46.1324C31.6714 48.1667 33.0246 49.8217 34.6878 49.8217C36.3512 49.8217 37.7042 48.1667 37.7042 46.1324C37.7042 44.0981 36.3509 42.4431 34.6878 42.4431Z" fill="#390075"/>
<path d="M35.3824 44.2415C35.2455 44.2073 35.1479 44.1766 35.0363 44.1386C34.9303 44.0993 34.8222 44.0645 34.7198 44.0188C34.5115 43.9342 34.3084 43.8407 34.111 43.7325C33.911 43.6319 33.7201 43.5104 33.5313 43.3871C33.4378 43.3226 33.3431 43.2624 33.2526 43.194L32.9852 42.9819C32.6373 42.6861 32.3173 42.35 32.0579 41.9666C31.8115 41.5749 31.6568 41.0975 31.7542 40.6227L32.7429 41.3482C33.0421 41.5658 33.3669 41.743 33.7008 41.902C34.0359 42.0606 34.3889 42.191 34.7427 42.3125C34.8308 42.3438 34.9199 42.3727 35.0101 42.3989C35.0986 42.4296 35.1876 42.457 35.2776 42.483L35.5438 42.5623L35.789 42.6322L35.8175 42.6404C36.2604 42.7669 36.5163 43.2264 36.3889 43.6664C36.2645 44.0979 35.8169 44.35 35.3824 44.2415Z" fill="#390075"/>
<path d="M35.7341 47.0732C36.3394 47.0732 36.83 46.4758 36.83 45.739C36.83 45.0022 36.3394 44.4048 35.7341 44.4048C35.1288 44.4048 34.6382 45.0022 34.6382 45.739C34.6382 46.4758 35.1288 47.0732 35.7341 47.0732Z" fill="white"/>
<path d="M35.7341 47.146C35.0897 47.146 34.5652 46.5149 34.5652 45.739C34.5652 44.9631 35.0897 44.332 35.7341 44.332C36.3788 44.332 36.903 44.9631 36.903 45.739C36.903 46.5149 36.3788 47.146 35.7341 47.146ZM35.7341 44.4774C35.1704 44.4774 34.7115 45.0433 34.7115 45.739C34.7115 46.4347 35.1701 47.0006 35.7341 47.0006C36.2981 47.0006 36.7567 46.4347 36.7567 45.739C36.7567 45.0433 36.2981 44.4774 35.7341 44.4774Z" fill="#390075"/>
<path d="M55.3114 49.8948C57.0176 49.8948 58.4008 48.2104 58.4008 46.1327C58.4008 44.0549 57.0176 42.3705 55.3114 42.3705C53.6051 42.3705 52.2219 44.0549 52.2219 46.1327C52.2219 48.2104 53.6051 49.8948 55.3114 49.8948Z" fill="#390075"/>
<path d="M55.3114 49.9674C53.5672 49.9674 52.1486 48.2469 52.1486 46.1324C52.1486 44.0179 53.5675 42.2974 55.3114 42.2974C57.0553 42.2974 58.4741 44.0176 58.4741 46.1324C58.4741 48.2472 57.0553 49.9674 55.3114 49.9674ZM55.3114 42.4431C53.6479 42.4431 52.2949 44.0981 52.2949 46.1324C52.2949 48.1667 53.6482 49.8217 55.3114 49.8217C56.9745 49.8217 58.3278 48.1667 58.3278 46.1324C58.3278 44.0981 56.9745 42.4431 55.3114 42.4431Z" fill="#390075"/>
<path d="M54.2098 42.6324L54.455 42.5625L54.7212 42.4832C54.8109 42.4573 54.9002 42.4298 54.9887 42.3992C55.0789 42.3729 55.168 42.344 55.2561 42.3127C55.61 42.1912 55.9629 42.0609 56.298 41.9022C56.6319 41.743 56.9567 41.5657 57.2559 41.3484L58.2446 40.6229C58.342 41.0974 58.1873 41.5752 57.941 41.9668C57.6815 42.3502 57.3616 42.6864 57.0137 42.9822L56.7462 43.1942C56.6557 43.2624 56.561 43.3228 56.4675 43.3874C56.279 43.5107 56.0879 43.6322 55.8878 43.7327C55.6904 43.841 55.4874 43.9344 55.279 44.0191C55.1766 44.0648 55.0685 44.0996 54.9626 44.1388C54.851 44.1769 54.7533 44.2075 54.6165 44.2417C54.1697 44.3541 53.7156 44.0851 53.6025 43.6413C53.4918 43.2066 53.7491 42.7648 54.1795 42.6416L54.2098 42.6324Z" fill="#390075"/>
<path d="M54.265 47.0732C54.8703 47.0732 55.3609 46.4758 55.3609 45.739C55.3609 45.0022 54.8703 44.4048 54.265 44.4048C53.6598 44.4048 53.1691 45.0022 53.1691 45.739C53.1691 46.4758 53.6598 47.0732 54.265 47.0732Z" fill="white"/>
<path d="M54.265 47.146C53.6203 47.146 53.0961 46.5149 53.0961 45.739C53.0961 44.9631 53.6206 44.332 54.265 44.332C54.9094 44.332 55.4339 44.9631 55.4339 45.739C55.4339 46.5149 54.9097 47.146 54.265 47.146ZM54.265 44.4774C53.701 44.4774 53.2424 45.0433 53.2424 45.739C53.2424 46.4347 53.701 47.0006 54.265 47.0006C54.8287 47.0006 55.2876 46.4347 55.2876 45.739C55.2876 45.0433 54.829 44.4774 54.265 44.4774Z" fill="#390075"/>
<path d="M58.2446 38.5787C57.7902 38.438 57.4093 38.3207 57.0442 38.2399C56.6812 38.1582 56.3479 38.1222 56.0193 38.124C55.8545 38.1249 55.6892 38.1343 55.5194 38.1591C55.4339 38.1664 55.3487 38.1871 55.26 38.198C55.1736 38.2195 55.0819 38.2304 54.992 38.2558C54.6239 38.3372 54.2377 38.4664 53.7723 38.5784C53.924 38.126 54.2243 37.7592 54.612 37.4758C54.9988 37.195 55.4983 37.0193 56.0101 37.0178C56.5215 37.0098 57.0258 37.1753 57.4194 37.4537C57.6168 37.5934 57.7905 37.7589 57.9327 37.9464C58.0728 38.1355 58.1906 38.3425 58.2446 38.5787Z" fill="#390075"/>
<path d="M31.7545 38.5787C31.8088 38.3425 31.9263 38.1352 32.0664 37.947C32.2086 37.7594 32.3823 37.594 32.5797 37.4542C32.9733 37.1758 33.4776 37.0104 33.989 37.0183C34.5008 37.0195 35.0003 37.1956 35.3871 37.4763C35.7748 37.7597 36.0752 38.1263 36.2268 38.579C35.7614 38.4669 35.3752 38.3378 35.0072 38.2564C34.9172 38.231 34.8255 38.2201 34.7391 38.1986C34.6501 38.1877 34.5652 38.167 34.4797 38.1596C34.3099 38.1349 34.1446 38.1254 33.9798 38.1245C33.6512 38.1231 33.3182 38.1591 32.9549 38.2404C32.5895 38.3207 32.2089 38.4383 31.7545 38.5787Z" fill="#390075"/>
<path d="M44.9997 59.5073C50.2792 59.5073 51.4466 55.4718 51.7031 53.8253C51.7669 53.4165 51.5615 53.0087 51.1901 52.8217C48.1853 51.3086 45 51.3608 45 51.3608C45 51.3608 41.8147 51.3086 38.8099 52.8217C38.4385 53.0087 38.2331 53.4165 38.2969 53.8253C38.5528 55.4718 39.72 59.5073 44.9997 59.5073Z" fill="#390075"/>
<path d="M44.9997 54.9852C41.3911 54.9852 39.6214 56.9059 39.5451 56.9905C40.4989 58.3323 42.1498 59.5064 44.9997 59.5064C47.8496 59.5064 49.5006 58.3323 50.4543 56.9905C50.378 56.9056 48.608 54.9852 44.9997 54.9852Z" fill="#FF4AA1"/>
<path d="M44.9997 59.5793C42.5416 59.5793 40.6864 58.7223 39.4855 57.0325L39.4519 56.9853L39.4905 56.9422C39.5647 56.8594 41.3534 54.9124 44.9997 54.9124C48.646 54.9124 50.4344 56.8594 50.5089 56.9422L50.5475 56.9853L50.514 57.0325C49.313 58.7223 47.4578 59.5793 44.9997 59.5793ZM39.6395 56.9968C40.8123 58.6141 42.6153 59.4339 44.9997 59.4339C47.3839 59.4339 49.1868 58.6141 50.3599 56.9968C50.0747 56.7022 48.3314 55.0581 44.9997 55.0581C41.6681 55.0578 39.9248 56.7022 39.6395 56.9968Z" fill="#390075"/>
<g opacity="0.3">
<path opacity="0.3" d="M44.9997 57.2348C41.0263 57.2348 39.2201 55.11 38.3979 53.227C38.3026 53.4066 38.2637 53.6157 38.2964 53.8254C38.5528 55.4718 39.7203 59.5073 44.9997 59.5073C50.2792 59.5073 51.4466 55.4718 51.7031 53.8254C51.7357 53.6157 51.6965 53.4066 51.6015 53.227C50.7793 55.11 48.9728 57.2348 44.9997 57.2348Z" fill="#390075"/>
</g>
<g opacity="0.3">
<path opacity="0.3" d="M47.4711 48.8969C47.4711 48.8969 46.7424 47.1985 44.9997 47.1985C43.257 47.1985 42.5283 48.8969 42.5283 48.8969" fill="#390075"/>
</g>
<path d="M44.9997 60.0603C39.1586 60.0603 37.971 55.3527 37.7463 53.91C37.6451 53.2594 37.9713 52.6242 38.5579 52.3287C41.5995 50.797 44.767 50.8037 44.9997 50.8082C45.2321 50.8052 48.4008 50.7976 51.4415 52.3287C52.0281 52.6242 52.3543 53.2594 52.2531 53.91C52.0281 55.3527 50.8408 60.0603 44.9997 60.0603ZM44.9697 51.9138C44.6949 51.9138 41.7761 51.948 39.061 53.3152C38.9075 53.3924 38.8194 53.5673 38.8464 53.7407C39.0907 55.3082 40.1791 58.9544 44.9997 58.9544C49.8202 58.9544 50.9087 55.3082 51.153 53.7407C51.18 53.5673 51.0916 53.3924 50.9384 53.3152C48.0995 51.8855 45.0383 51.915 45.0083 51.9138H44.9997H44.9905C44.989 51.9138 44.9822 51.9138 44.9697 51.9138Z" fill="#390075"/>
<path d="M47.4711 48.8968C47.0612 48.5152 46.6652 48.2035 46.2526 47.9932C45.8436 47.7765 45.4289 47.691 44.9997 47.6821C44.5702 47.691 44.1555 47.7765 43.7468 47.9932C43.3342 48.2032 42.9382 48.5152 42.5283 48.8968C42.574 48.3321 42.8563 47.7962 43.2938 47.3813C43.7293 46.9599 44.3731 46.7166 44.9997 46.7145C45.6263 46.7166 46.2701 46.9599 46.7056 47.3813C47.1431 47.7962 47.4254 48.3321 47.4711 48.8968Z" fill="#390075"/>
<path d="M69.9475 53.3408C67.3933 57.376 64.5983 58.972 64.4989 59.0257C64.4989 59.0204 64.5007 59.0189 64.5024 59.0136C68.5987 49.6674 65.2395 37.141 59.0452 32.9135C52.8473 28.6843 52.0999 23.936 52.0999 23.936C47.6934 34.7313 30.8548 31.7259 27.1589 43.0769C23.8831 53.1311 27.1729 59.287 27.9639 60.561C27.9936 60.6061 28.018 60.6441 28.0387 60.6769C28.0491 60.6925 28.058 60.7046 28.0666 60.7167C28.0963 60.7633 28.1171 60.7928 28.1242 60.8031C24.8362 58.6756 22.566 55.8678 20.9976 53.0547C17.7618 47.2468 17.5249 41.4077 17.5249 41.4077C14.6133 43.1889 13.0452 42.1868 13.0452 42.1868C13.8065 41.4944 14.5976 39.9382 15.2788 38.2935C16.2598 35.9304 16.969 33.4653 17.4724 30.9571C17.5143 30.7495 17.5579 30.5416 17.6048 30.3375C19.6853 21.0952 26.8134 13.8278 35.968 11.1863C47.4174 7.88337 52.5855 11.6953 52.5855 11.6953C60.9859 11.8616 66.2077 16.2569 69.3283 20.6124C72.0622 24.4244 73.6253 28.9426 73.9859 33.6095C74.7164 43.0925 72.4477 49.3885 69.9475 53.3408Z" fill="#6747C2"/>
<g opacity="0.3">
<path opacity="0.3" d="M28.1278 60.8069C24.838 58.6777 22.566 55.8699 20.9979 53.055C18.8696 40.7548 22.5565 34.0705 24.7329 31.3343C24.8659 31.1671 25.1256 31.3435 25.0203 31.5293C25.0024 31.5605 24.9932 31.577 24.9932 31.577C16.9049 48.5922 27.8716 60.5315 28.1242 60.8034C28.126 60.8052 28.126 60.8052 28.1278 60.8069Z" fill="#390075"/>
</g>
<g opacity="0.3">
<path opacity="0.3" d="M64.5024 59.0136C68.5987 49.6674 65.2395 37.141 59.0452 32.9135C52.8473 28.6843 52.0999 23.936 52.0999 23.936C47.6934 34.7313 30.8548 31.7259 27.1589 43.0769C23.8831 53.1311 27.1729 59.287 27.9639 60.561C27.004 59.0879 22.3289 51.1903 25.6709 41.7976C29.847 30.0624 45.0338 34.1627 52.0845 20.2703C52.2382 19.9674 52.6841 19.9987 52.7915 20.3207C53.3754 22.071 55.0338 25.9968 59.0888 29.983C64.5372 35.3406 71.6166 45.0365 64.5024 59.0136Z" fill="#390075"/>
</g>
<g opacity="0.3">
<path opacity="0.3" d="M17.5252 41.4083C14.6136 43.1895 13.0455 42.1874 13.0455 42.1874C13.0455 42.1874 16.1782 41.3531 18.2222 37.7367C18.2222 37.7364 18.2848 39.5436 17.5252 41.4083Z" fill="#390075"/>
</g>
<g opacity="0.3">
<path opacity="0.3" d="M69.9475 53.3408C67.3933 57.376 64.5983 58.972 64.4989 59.0257C64.6993 58.7573 74.1361 46.025 64.9067 30.2234C64.9067 30.2234 64.0344 28.8653 63.2353 27.7836C63.1548 27.6748 63.2917 27.5382 63.4012 27.6188C65.6129 29.244 73.05 36.1159 69.9475 53.3408Z" fill="#390075"/>
</g>
<g opacity="0.6">
<path opacity="0.6" d="M73.9866 33.6095C73.6259 28.9423 72.0628 24.4244 69.329 20.6124C66.2084 16.2569 60.9862 11.8616 52.5862 11.6953C52.5862 11.6953 47.418 7.88336 35.9686 11.1863C26.814 13.8281 19.6856 21.0952 17.6054 30.3375C17.5585 30.5419 17.5149 30.7495 17.473 30.9571C17.3875 31.383 17.297 31.807 17.1978 32.2293C19.1329 23.8661 25.5623 16.8963 33.5788 13.7349C33.802 13.6467 34.0499 13.6488 34.2743 13.7337C34.9579 13.9926 36.4334 13.9449 38.0797 13.5641C39.7805 13.1707 41.1596 12.5385 41.6158 11.9938C41.7732 11.8059 42.0071 11.6986 42.252 11.6747C48.416 11.0772 51.4873 12.846 52.102 13.2539C52.1837 13.3082 52.2798 13.3368 52.3781 13.3394C60.6897 13.5588 66.2285 18.0149 69.3296 22.3429C72.0634 26.1549 73.6265 30.6731 73.9871 35.34C74.0569 36.2471 74.0988 37.1266 74.116 37.9765C74.1433 36.6025 74.105 35.1483 73.9866 33.6095Z" fill="white"/>
</g>
<path d="M28.1284 61.3617C28.0236 61.3617 27.9182 61.3325 27.8253 61.2721C22.485 57.8137 19.8177 52.6021 18.5202 48.8394C17.5359 45.9844 17.172 43.5506 17.0405 42.3084C14.3468 43.6378 12.8136 42.6965 12.7439 42.6523C12.5987 42.5597 12.5049 42.4048 12.4904 42.2338C12.4758 42.0628 12.5417 41.8947 12.6694 41.7791C13.0814 41.4048 13.7795 40.4599 14.7647 38.0839C15.6775 35.883 16.4047 33.4488 16.9271 30.8498C16.9702 30.6366 17.015 30.4258 17.0619 30.2167C19.1629 20.882 26.3477 13.3864 35.8128 10.6555C46.4554 7.58438 51.7962 10.5234 52.763 11.146C61.5742 11.3801 66.8786 16.2405 69.7822 20.291C72.521 24.1118 74.1667 28.7029 74.541 33.5677C75.3216 43.7119 72.6478 50.2084 70.2669 53.872C67.6631 57.8789 64.8842 59.4472 64.7672 59.5118C64.5585 59.6274 64.2991 59.5976 64.1222 59.438C63.9453 59.2785 63.8907 59.0249 63.9862 58.8072C65.8447 54.5768 66.2481 49.2431 65.0922 44.1734C63.9996 39.3809 61.6211 35.3418 58.7296 33.3692C54.4324 30.4373 52.6749 27.2667 51.9797 25.4725C49.4688 29.9928 44.6144 31.8655 39.907 33.6815C34.5527 35.747 29.4953 37.6981 27.6882 43.2474C25.8288 48.9574 26.1708 53.3397 26.7852 56.0109C27.4504 58.9025 28.5692 60.4693 28.5802 60.485C28.7369 60.7011 28.7164 60.9978 28.5315 61.1904C28.4231 61.303 28.2765 61.3617 28.1284 61.3617ZM17.5252 40.8554C17.6149 40.8554 17.7048 40.8769 17.7868 40.9203C17.961 41.0126 18.0732 41.1898 18.0815 41.3856C18.0827 41.4172 18.229 44.5966 19.5844 48.5135C20.661 51.6245 22.7165 55.7715 26.5454 58.9568C26.2565 58.2469 25.9591 57.3681 25.7154 56.325C25.0565 53.5069 24.6801 48.8913 26.6288 42.9071C28.5989 36.8577 34.1425 34.719 39.5039 32.6505C44.6548 30.6635 49.5198 28.7867 51.5843 23.7284C51.6784 23.4981 51.9159 23.3577 52.164 23.3869C52.4119 23.4152 52.6105 23.6043 52.6496 23.849C52.6571 23.8945 53.4606 28.4325 59.3598 32.4574C62.5226 34.6152 65.0076 38.7964 66.1777 43.9289C67.2288 48.5389 67.0409 53.3686 65.6868 57.4722C66.6844 56.6261 68.0585 55.2457 69.3714 53.2108C71.6397 49.6949 74.1851 43.4476 73.4311 33.6517C73.0723 28.9875 71.4967 24.5893 68.8754 20.9321C64.8411 15.3041 59.3568 12.3822 52.5742 12.2474C52.4585 12.2451 52.3466 12.207 52.2537 12.1386C52.2053 12.1038 47.1206 8.5443 36.1232 11.7175C27.0482 14.3363 20.1605 21.5172 18.1483 30.4582C18.1032 30.659 18.0598 30.8616 18.0186 31.0666C17.4822 33.7358 16.7339 36.2384 15.7938 38.5053C15.1628 40.0273 14.5792 41.1503 14.0259 41.905C14.6593 41.9699 15.7318 41.8554 17.2335 40.9374C17.3231 40.8828 17.424 40.8554 17.5252 40.8554Z" fill="#390075"/>
<path d="M27.7202 61.1839C27.5935 61.0464 27.4878 60.9243 27.3774 60.7934C27.2685 60.6645 27.1619 60.5348 27.0583 60.4038C26.8499 60.142 26.6469 59.8774 26.4534 59.6064C26.0681 59.0638 25.6964 58.5123 25.3557 57.9428C24.6643 56.8098 24.0529 55.6287 23.5373 54.4063C23.0229 53.1839 22.5862 51.9279 22.255 50.643C21.9279 49.3575 21.6975 48.0479 21.5622 46.7296C21.4232 45.4111 21.4123 44.0817 21.4856 42.7611C21.542 41.4378 21.7545 40.1281 22.016 38.8359C22.1695 38.1939 22.3042 37.5477 22.5046 36.9193C22.5999 36.604 22.6845 36.2852 22.789 35.9732L23.1181 35.0425L23.2868 34.5789C23.3503 34.4273 23.4197 34.2778 23.4868 34.1274C23.6254 33.8287 23.7655 33.5311 23.916 33.2388C23.9867 33.0908 24.0707 32.9487 24.1577 32.808C24.2434 32.667 24.3316 32.5272 24.4209 32.3883C24.605 32.1132 24.7855 31.8377 24.9935 31.5776C24.9294 31.9076 24.838 32.222 24.7498 32.5364C24.7032 32.6924 24.6551 32.8475 24.605 33.0014L24.5284 33.2315L24.4601 33.4644C24.3705 33.7753 24.2704 34.0811 24.1689 34.3857L24.011 34.8402L23.8688 35.2996L23.5768 36.2147C23.4847 36.5211 23.4129 36.8332 23.3298 37.1416C23.1538 37.7568 23.0439 38.3867 22.9145 39.0116C22.7026 40.2691 22.5375 41.5351 22.5076 42.8077C22.4654 44.0781 22.504 45.3521 22.6655 46.6123C22.8124 47.8733 23.0493 49.1234 23.3788 50.3502C23.7148 51.5749 24.1292 52.7787 24.6308 53.9472C25.1327 55.1147 25.6991 56.2572 26.3575 57.3462C26.6801 57.8945 27.0322 58.4247 27.3955 58.9449C27.578 59.2044 27.763 59.4622 27.955 59.7129C28.0503 59.8391 28.1474 59.9629 28.2459 60.0847C28.3427 60.2048 28.4478 60.3304 28.5389 60.4345L28.5502 60.4472C28.7523 60.6772 28.7286 61.0264 28.497 61.2272C28.2685 61.4248 27.9236 61.4042 27.7202 61.1839Z" fill="#390075"/>
<path d="M64.0587 58.6863C64.1388 58.5807 64.2326 58.4509 64.3172 58.3271C64.4042 58.202 64.4888 58.0737 64.5722 57.9446C64.7399 57.6865 64.899 57.4214 65.0566 57.1551C65.3689 56.6205 65.6625 56.0734 65.9329 55.5146C66.4776 54.398 66.9225 53.2343 67.3051 52.0524C68.0567 49.6846 68.477 47.2053 68.4969 44.7151L68.5061 44.2483C68.5076 44.0925 68.499 43.9371 68.4957 43.7814C68.4842 43.4703 68.4839 43.1583 68.4637 42.8474L68.3913 41.915L68.3723 41.6817L68.3423 41.4496L68.2829 40.9854C68.2179 40.364 68.0858 39.7527 67.9834 39.1358C67.9208 38.8296 67.8454 38.5259 67.7768 38.2207L67.6717 37.763C67.6364 37.6105 67.588 37.4613 67.5468 37.3103L67.2894 36.4061C67.2007 36.1053 67.0902 35.8116 66.992 35.5134L66.84 35.0678L66.764 34.8449L66.6768 34.6261C66.5589 34.335 66.4461 34.0415 66.3333 33.7478C66.1131 33.158 65.8453 32.5877 65.6221 31.9946C65.3802 31.4098 65.1199 30.8324 64.9061 30.2237C65.1012 30.4782 65.2855 30.7401 65.4666 31.0046C65.5589 31.1361 65.6459 31.2703 65.7346 31.4042C65.8225 31.5384 65.9151 31.6702 65.9899 31.8115C66.1478 32.0896 66.3069 32.368 66.4568 32.6514L66.6854 33.0748C66.7587 33.2176 66.8192 33.3656 66.8869 33.511C67.0193 33.803 67.1514 34.0952 67.2787 34.3895L67.3752 34.6101L67.4604 34.8351L67.6308 35.2852C67.7415 35.5863 67.8641 35.8835 67.9653 36.1885L68.2598 37.1062C68.3073 37.2599 68.3616 37.4114 68.4031 37.5666L68.5269 38.0328C68.6077 38.3442 68.6955 38.6539 68.7703 38.9668C68.8991 39.5973 69.0514 40.2246 69.1351 40.8639L69.209 41.3417L69.2461 41.5808L69.2723 41.8212L69.3723 42.7837C69.4014 43.1049 69.4109 43.4278 69.4311 43.7502C69.4385 43.9115 69.4515 44.0725 69.4542 44.2341L69.4575 44.7186C69.4702 46.0103 69.3821 47.305 69.19 48.5843C69.0018 49.8642 68.7204 51.1311 68.3467 52.3717C67.9757 53.613 67.4996 54.823 66.94 55.9941C66.6595 56.5795 66.3547 57.1536 66.0282 57.7175C65.8643 57.9991 65.6913 58.2758 65.5117 58.55C65.4218 58.6869 65.3303 58.8234 65.235 58.9585C65.1389 59.0959 65.0463 59.2239 64.9329 59.3705L64.0587 58.6863Z" fill="#390075"/>
<path d="M13.1238 48.701C13.4254 49.0989 13.6148 49.5162 13.7798 49.9391C13.9514 50.3599 14.1048 50.7843 14.2681 51.2048C14.5893 52.0474 15.0399 52.8374 15.5902 53.5145C15.8668 53.8513 16.175 54.1562 16.5184 54.3954L16.6472 54.4848L16.7808 54.5638C16.874 54.6201 16.9491 54.6602 17.0441 54.6986C17.2275 54.7761 17.4338 54.8386 17.6455 54.8911C18.5015 55.0964 19.4288 55.1745 20.3475 55.2273C22.1941 55.3214 24.0615 55.2819 25.9241 55.2046C26.8559 55.1645 27.7879 55.1114 28.7194 55.0483C29.1848 55.0153 29.6514 54.9923 30.1136 54.9183C30.3451 54.8873 30.5784 54.8793 30.8141 54.8959C31.0501 54.9177 31.2887 54.9675 31.5369 55.1153L31.5654 55.4049C31.3472 55.5969 31.1192 55.6883 30.8883 55.7499C30.6571 55.8065 30.4235 55.8369 30.1881 55.8428C29.7164 55.8428 29.2486 55.8885 28.7793 55.9189C27.8413 55.9823 26.9025 56.036 25.9621 56.0764C24.0814 56.1542 22.1971 56.1952 20.3 56.0988C19.8257 56.0728 19.3505 56.0383 18.8729 55.9832C18.3956 55.9277 17.9168 55.8576 17.4323 55.7381C17.1901 55.6774 16.9461 55.6057 16.6983 55.5013C16.576 55.4521 16.4436 55.3825 16.337 55.3176L16.1693 55.2176L16.0096 55.1076C15.5857 54.8112 15.2254 54.4514 14.9102 54.0678C14.5946 53.6838 14.3218 53.2748 14.0796 52.8533C13.8416 52.4299 13.6231 51.9996 13.418 51.564C13.2129 51.1284 13.0452 50.6775 12.9264 50.2133C12.8053 49.7503 12.737 49.2714 12.8368 48.76L13.1238 48.701Z" fill="#390075"/>
<path d="M32.5589 56.2619C33.1157 55.7086 33.1157 54.8116 32.5589 54.2584C32.002 53.7051 31.0991 53.7051 30.5423 54.2584C29.9854 54.8116 29.9854 55.7086 30.5423 56.2619C31.0991 56.8152 32.002 56.8152 32.5589 56.2619Z" fill="#390075"/>
<path d="M25.4097 61.6067C25.4097 61.6067 24.9428 62.8306 20.6859 63.137C20.6859 63.137 16.3195 63.8053 15.814 61.0511V61.0494C15.3106 58.2952 15.2251 55.0684 18.1106 55.0961C17.9678 55.0979 19.7102 52.8421 21.3743 55.0961C21.3743 55.0961 22.7614 54.4104 23.6254 55.0666C23.8884 55.2657 24.1027 55.5912 24.2144 56.0985C24.2144 56.0985 26.8001 55.5134 25.4097 61.6067Z" fill="#FFC5B3"/>
<path d="M19.6054 63.277C18.2572 63.277 16.0921 62.9721 15.7422 61.0641L15.741 61.0493C15.2634 58.4432 15.4127 56.7198 16.1987 55.7929C16.6276 55.2874 17.2501 55.0285 18.0492 55.0232C18.1409 54.8221 18.5505 54.4033 19.0343 54.1854C19.628 53.9179 20.5164 53.8462 21.3971 55.0049C21.6714 54.8813 22.8688 54.4009 23.6697 55.0087C23.9579 55.227 24.1597 55.5658 24.2702 56.0162C24.4397 55.9976 24.8781 55.9946 25.2613 56.375C25.7882 56.8982 26.2542 58.2333 25.4809 61.6226L25.478 61.6324C25.4584 61.6843 24.9455 62.9031 20.6913 63.2095C20.6791 63.2116 20.2297 63.277 19.6054 63.277ZM18.0518 55.1686C17.2967 55.1733 16.711 55.4145 16.3109 55.8867C15.5546 56.7782 15.4157 58.4627 15.8861 61.0363L15.8873 61.0511C16.3727 63.6908 20.6319 63.0718 20.6746 63.0653C24.6988 62.7754 25.3046 61.6568 25.3396 61.584C26.0954 58.2681 25.6593 56.9784 25.1604 56.4803C24.7415 56.0625 24.2512 56.1648 24.2304 56.1692L24.1586 56.1851L24.1428 56.1138C24.044 55.6646 23.8552 55.3317 23.5809 55.1243C22.7623 54.503 21.4203 55.1544 21.4066 55.1609L21.3514 55.1883L21.3149 55.1391C20.7622 54.3906 20.1489 54.0724 19.4927 54.1919C18.7289 54.3313 18.197 55.0143 18.1744 55.0954C18.1759 55.0896 18.1771 55.0689 18.162 55.0494L18.1112 55.0884V55.1692L18.0518 55.1698V55.1686Z" fill="#390075"/>
<g opacity="0.3">
<path opacity="0.3" d="M25.4097 61.6067C25.4097 61.6067 24.9428 62.8306 20.6859 63.137C20.6859 63.137 16.3195 63.8052 15.814 61.0511V61.0493C15.814 61.0493 18.8749 61.7214 22.0982 60.7376C23.3889 60.3436 24.2387 59.1218 24.1829 57.7818C24.1476 56.9369 24.006 55.956 23.6251 55.0666C23.8881 55.2657 24.1024 55.5912 24.2141 56.0985C24.2144 56.0985 26.8001 55.5134 25.4097 61.6067Z" fill="#390075"/>
</g>
<g opacity="0.6">
<path opacity="0.6" d="M16.8594 61.0511V61.0493C16.356 58.2952 16.2705 55.0683 19.156 55.096C19.0786 55.0969 19.5556 54.4354 20.2736 54.1877C19.0284 53.735 17.9996 55.0975 18.1106 55.096C15.2251 55.0683 15.3106 58.2952 15.814 61.0493V61.0511C16.2043 63.1794 18.8993 63.2638 20.1044 63.1924C18.8067 63.1113 17.1584 62.6796 16.8594 61.0511Z" fill="white"/>
</g>
<path d="M19.5666 63.7631C18.0726 63.7631 15.6787 63.4015 15.2666 61.149C14.76 58.3808 14.944 56.5276 15.8294 55.4839C16.3053 54.923 16.963 54.6107 17.7876 54.5532C18.0794 54.1893 18.5659 53.8693 18.8355 53.7478C19.4107 53.4886 20.4894 53.2633 21.5467 54.4305C22.0478 54.2603 22.8991 54.0763 23.6421 54.4305C23.9709 54.5871 24.3818 54.905 24.6296 55.5458C24.9164 55.5856 25.2755 55.7089 25.6038 56.0351C26.5083 56.9331 26.6226 58.7954 25.9529 61.7288C25.9473 61.7539 25.9398 61.7784 25.9306 61.8022C25.8318 62.0615 25.1182 63.3685 20.7479 63.6867C20.6292 63.7038 20.1718 63.7631 19.5666 63.7631ZM18.0732 55.649C17.4487 55.649 16.993 55.8283 16.6808 56.1964C16.0316 56.9614 15.9244 58.5612 16.362 60.9511C16.763 63.1426 20.5648 62.5958 20.6028 62.5902C20.617 62.5882 20.6322 62.5864 20.6467 62.5852C23.9472 62.3478 24.7555 61.5581 24.887 61.3979C25.6335 58.0705 25.0882 57.0867 24.8172 56.8175C24.5946 56.5963 24.3411 56.6364 24.339 56.637C24.1942 56.6697 24.0422 56.6435 23.9169 56.5644C23.7917 56.4854 23.7032 56.3598 23.6717 56.2156C23.5821 55.8065 23.415 55.5488 23.1609 55.4276C22.6595 55.1884 21.8623 55.473 21.6224 55.5912C21.3802 55.7113 21.086 55.6402 20.9257 55.4231C20.5324 54.8905 20.1249 54.6316 19.7144 54.6487C19.2231 54.6711 18.785 55.0787 18.6434 55.2568C18.5748 55.4821 18.3653 55.6467 18.1162 55.649C18.1124 55.649 18.1088 55.649 18.1053 55.649C18.0943 55.649 18.0836 55.649 18.0732 55.649Z" fill="#390075"/>
<path d="M18.6669 55.0964L18.1103 56.6358L17.5537 55.0964H18.6669Z" fill="#390075"/>
<path d="M21.9267 55.1616L21.1721 56.7841L20.8213 55.0309L21.9267 55.1616Z" fill="#390075"/>
<path d="M24.7564 56.2262C24.6314 56.4123 24.499 56.5963 24.3607 56.7794C24.2247 56.9628 24.0826 57.1448 23.9211 57.322C23.8576 57.0914 23.813 56.8652 23.7753 56.6405C23.7353 56.4155 23.7008 56.1917 23.6735 55.9696L24.7564 56.2262Z" fill="#390075"/>
<path d="M25.7736 63.8884C21.2469 67.8198 15.814 64.8527 15.814 64.8527C15.5561 64.3853 15.4151 63.9492 15.3557 63.5475C15.1153 61.9704 16.112 60.9576 16.112 60.9576C19.379 63.6236 22.9317 62.0983 24.5524 61.129C25.1188 60.7913 25.448 60.5215 25.448 60.5215C26.6798 62.72 25.7736 63.8884 25.7736 63.8884Z" fill="white"/>
<g opacity="0.3">
<path opacity="0.3" d="M25.7736 63.8884C21.2469 67.8198 15.814 64.8527 15.814 64.8527C15.5561 64.3853 15.4151 63.9491 15.3557 63.5475C16.855 64.0792 20.1062 64.9893 22.7266 64.0285C23.9122 63.5938 24.659 62.4094 24.5548 61.1584C24.5539 61.1487 24.5531 61.139 24.5525 61.1292C25.1188 60.7916 25.448 60.5217 25.448 60.5217C26.6799 62.72 25.7736 63.8884 25.7736 63.8884Z" fill="#390075"/>
</g>
<g opacity="0.6">
<g opacity="0.7">
<path opacity="0.7" d="M17.0337 65.0259C16.7757 64.5585 16.6348 64.1223 16.5754 63.7206C16.4299 62.7669 16.7369 62.0217 17.0022 61.5799C16.7042 61.4041 16.4068 61.1986 16.1117 60.9579C16.1117 60.9579 15.115 61.9707 15.3554 63.5478C15.4148 63.9495 15.5558 64.3856 15.8137 64.8531C15.8137 64.8531 17.4068 65.7225 19.5859 65.8962C18.0575 65.5844 17.0337 65.0259 17.0337 65.0259Z" fill="white"/>
</g>
</g>
<path d="M20.3223 66.4786C19.896 66.4786 19.463 66.4503 19.0236 66.393C17.0188 66.1321 15.6047 65.3694 15.5457 65.337C15.4528 65.2863 15.3768 65.2105 15.3257 65.1185C14.1648 63.0152 15.0722 61.2242 15.7143 60.5713C15.9161 60.366 16.2423 60.3481 16.4658 60.5306C20.4713 63.802 25.0473 60.1325 25.0927 60.095C25.22 59.9906 25.3877 59.9482 25.5501 59.9785C25.7125 60.0089 25.8526 60.1095 25.933 60.2528C27.3272 62.74 26.2604 64.1662 26.2144 64.2255C26.1921 64.2541 26.1672 64.2806 26.1396 64.3045C24.4886 65.7384 22.4975 66.4786 20.3223 66.4786ZM16.2257 64.4411C17.091 64.8648 21.5351 66.7794 25.3527 63.5192C25.4429 63.3632 25.7831 62.6409 25.2387 61.3534C24.6833 61.7197 23.7531 62.2552 22.5999 62.6165C20.2775 63.3443 18.0871 63.0403 16.229 61.7403C15.9378 62.249 15.6104 63.211 16.2257 64.4411Z" fill="#390075"/>
</svg>
