<svg width="108" height="127" viewBox="0 0 108 127" fill="none" xmlns="http://www.w3.org/2000/svg">
<g filter="url(#filter0_d_24_2148)">
<path d="M31.0503 25.3676L32.9458 36.7122L29.5977 47.6664L38.9701 54.3265L44.3095 64.4806L55.654 62.5851L66.6568 65.9364L73.2684 56.5608L83.4256 51.1729L81.527 39.8769L84.8782 28.8741L75.5544 22.2171L70.1665 12.0598L58.8187 14.0039L47.8645 10.6558L41.1589 19.9765L31.0503 25.3676ZM56.0064 57.9245C50.8526 57.5888 46.0433 55.2194 42.6364 51.3377C39.2295 47.456 37.5041 42.3799 37.8398 37.2261C38.1756 32.0723 40.5449 27.263 44.4266 23.8561C48.3083 20.4492 53.3844 18.7238 58.5382 19.0595C69.226 19.7558 77.3556 29.0183 76.6594 39.7061C75.9568 50.4912 66.6943 58.6207 56.0064 57.9245ZM56.2257 53.06C48.1613 52.5347 42.124 45.6039 42.6494 37.5394C43.1715 29.5235 50.0601 23.386 58.1245 23.9113C66.189 24.4367 72.3203 31.4224 71.7981 39.4383C71.2727 47.5027 64.2902 53.5854 56.2257 53.06ZM74.5328 59.6192L67.6055 70.0963L57.6494 67.1547L68.0954 96.2782L75.593 86.0334L87.7383 86.8246L74.5328 59.6192ZM37.1031 57.5225L42.4637 68.8488L52.9729 67.0453L38.9467 94.3794L32.8415 83.2485L20.6962 82.4573L37.1031 57.5225Z" fill="url(#paint0_linear_24_2148)"/>
</g>
<defs>
<filter id="filter0_d_24_2148" x="0.696243" y="0.655762" width="107.042" height="125.622" filterUnits="userSpaceOnUse" color-interpolation-filters="sRGB">
<feFlood flood-opacity="0" result="BackgroundImageFix"/>
<feColorMatrix in="SourceAlpha" type="matrix" values="0 0 0 0 0 0 0 0 0 0 0 0 0 0 0 0 0 0 127 0" result="hardAlpha"/>
<feOffset dy="10"/>
<feGaussianBlur stdDeviation="10"/>
<feComposite in2="hardAlpha" operator="out"/>
<feColorMatrix type="matrix" values="0 0 0 0 0.0626668 0 0 0 0 0.0473334 0 0 0 0 0.4 0 0 0 0.35 0"/>
<feBlend mode="normal" in2="BackgroundImageFix" result="effect1_dropShadow_24_2148"/>
<feBlend mode="normal" in="SourceGraphic" in2="effect1_dropShadow_24_2148" result="shape"/>
</filter>
<linearGradient id="paint0_linear_24_2148" x1="63.2305" y1="1.96148" x2="41.3929" y2="229.623" gradientUnits="userSpaceOnUse">
<stop stop-color="#2E2594"/>
<stop offset="1" stop-color="#F73B6C"/>
</linearGradient>
</defs>
</svg>
